SplineFontDB: 3.0
FontName: Oswald
FullName: Oswald 
FamilyName: Oswald
Weight: Book
Copyright: Copyright (c) 2011 by vernon adams. All rights reserved.
FontLog: "auto width +AD0A 260, -200, 314" 
Version: 1.000
ItalicAngle: 0
UnderlinePosition: -103
UnderlineWidth: 102
Ascent: 1638
Descent: 410
sfntRevision: 0x00010000
LayerCount: 2
Layer: 0 1 "Back"  1
Layer: 1 1 "Fore"  0
NeedsXUIDChange: 1
XUID: [1021 14 500265001 6765310]
FSType: 0
OS2Version: 2
OS2_WeightWidthSlopeOnly: 0
OS2_UseTypoMetrics: 1
CreationTime: 1299844920
ModificationTime: 1318592493
PfmFamily: 17
TTFWeight: 400
TTFWidth: 5
LineGap: 0
VLineGap: 0
Panose: 2 0 5 6 0 0 0 2 0 4
OS2TypoAscent: 806
OS2TypoAOffset: 1
OS2TypoDescent: -103
OS2TypoDOffset: 1
OS2TypoLinegap: 0
OS2WinAscent: 0
OS2WinAOffset: 1
OS2WinDescent: -10
OS2WinDOffset: 1
HheadAscent: 0
HheadAOffset: 1
HheadDescent: 10
HheadDOffset: 1
OS2SubXSize: 1434
OS2SubYSize: 1331
OS2SubXOff: 0
OS2SubYOff: 287
OS2SupXSize: 1434
OS2SupYSize: 1331
OS2SupXOff: 0
OS2SupYOff: 977
OS2StrikeYSize: 102
OS2StrikeYPos: 512
OS2Vendor: 'newt'
OS2CodePages: 00000001.00000000
OS2UnicodeRanges: 8000002f.4000204b.00000000.00000000
Lookup: 4 0 1 "'liga' Standard Ligatures in Latin lookup 0"  {"'liga' Standard Ligatures in Latin lookup 0-1"  } ['liga' ('DFLT' <'dflt' > 'latn' <'dflt' > ) ]
Lookup: 258 0 0 "'kern' Horizontal Kerning in Latin lookup 0"  {"'kern'" [260,0,2] "'kern' Horizontal Kerning in Latin lookup 0-1" [307,30,0] } ['kern' ('DFLT' <'dflt' > 'latn' <'dflt' > ) ]
MarkAttachClasses: 1
DEI: 91125
KernClass2: 4 4 "'kern'" 
 50 A Agrave Aacute Acircumflex Atilde Adieresis Aring
 21 T Tcommaaccent Tcaron
 1 f
 21 T Tcommaaccent Tcaron
 3 V W
 240 a c e o q agrave aacute acircumflex atilde adieresis aring ae ccedilla egrave eacute ecircumflex edieresis ograve oacute ocircumflex otilde odieresis abreve aogonek cacute ccircumflex cdotaccent ccaron dcaron eogonek ecaron ohungarumlaut oe

StartChar: .notdef
Encoding: 294 -1 0
Width: 792
Flags: MW
LayerCount: 2
Fore
SplineSet
126 0 m 1,0,-1
 126 1365 l 1,1,-1
 670 1365 l 1,2,-1
 670 0 l 1,3,-1
 126 0 l 1,0,-1
194 68 m 1,4,-1
 602 68 l 1,5,-1
 602 1297 l 1,6,-1
 194 1297 l 1,7,-1
 194 68 l 1,4,-1
EndSplineSet
EndChar

StartChar: exclam
Encoding: 1 33 4
Width: 462
GlyphClass: 2
Flags: MW
LayerCount: 2
Fore
SplineSet
106 1792 m 1,0,-1
 362 1792 l 1,1,-1
 298 384 l 1,2,-1
 170 384 l 1,3,-1
 106 1792 l 1,0,-1
106 256 m 1,4,-1
 362 256 l 1,5,-1
 362 0 l 1,6,-1
 106 0 l 1,7,-1
 106 256 l 1,4,-1
EndSplineSet
EndChar

StartChar: quotedbl
Encoding: 2 34 5
Width: 707
GlyphClass: 2
Flags: MW
LayerCount: 2
Fore
SplineSet
67 1792 m 1,0,-1
 323 1792 l 1,1,-1
 259 1408 l 1,2,-1
 131 1408 l 1,3,-1
 67 1792 l 1,0,-1
390 1792 m 1,4,-1
 646 1792 l 1,5,-1
 582 1408 l 1,6,-1
 454 1408 l 1,7,-1
 390 1792 l 1,4,-1
EndSplineSet
EndChar

StartChar: numbersign
Encoding: 3 35 6
Width: 1106
GlyphClass: 2
Flags: MW
LayerCount: 2
Fore
SplineSet
1028 1024 m 1,0,-1
 917 1024 l 1,1,-1
 889 832 l 1,2,-1
 1028 832 l 1,3,-1
 1028 640 l 1,4,-1
 862 640 l 1,5,-1
 772 0 l 1,6,-1
 516 0 l 1,7,-1
 606 640 l 1,8,-1
 414 640 l 1,9,-1
 324 0 l 1,10,-1
 68 0 l 1,11,-1
 158 640 l 1,12,-1
 68 640 l 1,13,-1
 68 832 l 1,14,-1
 185 832 l 1,15,-1
 213 1024 l 1,16,-1
 68 1024 l 1,17,-1
 68 1216 l 1,18,-1
 240 1216 l 1,19,-1
 322 1792 l 1,20,-1
 578 1792 l 1,21,-1
 496 1216 l 1,22,-1
 688 1216 l 1,23,-1
 770 1792 l 1,24,-1
 1026 1792 l 1,25,-1
 944 1216 l 1,26,-1
 1028 1216 l 1,27,-1
 1028 1024 l 1,0,-1
441 832 m 1,28,-1
 634 832 l 1,29,-1
 661 1024 l 1,30,-1
 469 1024 l 1,31,-1
 441 832 l 1,28,-1
EndSplineSet
EndChar

StartChar: dollar
Encoding: 4 36 7
Width: 1074
GlyphClass: 2
Flags: MW
LayerCount: 2
Fore
SplineSet
506 1920 m 1,0,-1
 634 1920 l 1,1,-1
 634 1799 l 1,2,3
 853 1757 853 1757 954 1577 c 1,4,5
 1010 1474 1010 1474 1018 1344 c 1,6,-1
 762 1280 l 1,7,8
 753 1481 753 1481 634 1564 c 1,9,-1
 634 998 l 1,10,-1
 762 896 l 1,11,12
 1018 690 1018 690 1018 405 c 128,-1,13
 1018 120 1018 120 769 16 c 0,14,15
 709 -8 709 -8 634 -15 c 1,16,-1
 634 -128 l 1,17,-1
 506 -128 l 1,18,-1
 506 -15 l 1,19,20
 237 8 237 8 122 247 c 0,21,22
 66 363 66 363 58 512 c 1,23,-1
 314 576 l 1,24,25
 325 266 325 266 506 200 c 1,26,-1
 506 755 l 1,27,-1
 250 960 l 2,28,29
 57 1114 57 1114 57 1337 c 128,-1,30
 57 1560 57 1560 175.5 1685 c 128,-1,31
 294 1810 294 1810 506 1810 c 1,32,-1
 506 1920 l 1,0,-1
506 1600 m 1,33,34
 314 1600 314 1600 314 1373 c 0,35,36
 314 1253 314 1253 442 1152 c 2,37,-1
 506 1101 l 1,38,-1
 506 1600 l 1,33,34
762 373.5 m 128,-1,40
 762 520 762 520 654 628 c 0,41,42
 644 638 644 638 634 648 c 1,43,-1
 634 198 l 1,44,39
 762 227 762 227 762 373.5 c 128,-1,40
EndSplineSet
EndChar

StartChar: percent
Encoding: 5 37 8
Width: 1888
GlyphClass: 2
Flags: MW
LayerCount: 2
Fore
SplineSet
27 1021 m 0,0,1
 26 1398 26 1398 252 1490 c 0,2,3
 317 1516 317 1516 393 1516 c 256,4,5
 521 1516 521 1516 640.5 1421.5 c 128,-1,6
 760 1327 760 1327 760 1055.5 c 128,-1,7
 760 784 760 784 654 662.5 c 128,-1,8
 548 541 548 541 393 541 c 256,9,10
 238 541 238 541 132.5 663 c 128,-1,11
 27 785 27 785 27 1021 c 0,0,1
260 1028 m 128,-1,13
 260 735 260 735 393.5 735 c 128,-1,14
 527 735 527 735 527 1028 c 128,-1,15
 527 1321 527 1321 393.5 1321 c 128,-1,12
 260 1321 260 1321 260 1028 c 128,-1,13
1137 481 m 0,16,17
 1136 856 1136 856 1362 948 c 0,18,19
 1427 974 1427 974 1503 975 c 256,20,21
 1631 975 1631 975 1750.5 880.5 c 128,-1,22
 1870 786 1870 786 1870 514.5 c 128,-1,23
 1870 243 1870 243 1764 121.5 c 128,-1,24
 1658 0 1658 0 1503 0 c 256,25,26
 1348 0 1348 0 1242.5 122 c 128,-1,27
 1137 244 1137 244 1137 481 c 0,16,17
1503 195 m 256,28,29
 1637 195 1637 195 1637 487.5 c 128,-1,30
 1637 780 1637 780 1503.5 780 c 128,-1,31
 1370 780 1370 780 1370 487.5 c 128,-1,32
 1370 195 1370 195 1503 195 c 256,28,29
983 1518 m 1,33,-1
 1202 1518 l 1,34,-1
 920 0 l 1,35,-1
 700 0 l 1,36,-1
 983 1518 l 1,33,-1
EndSplineSet
EndChar

StartChar: ampersand
Encoding: 6 38 9
Width: 1167
GlyphClass: 2
Flags: MW
LayerCount: 2
Fore
SplineSet
1140 -18 m 1,0,1
 1000 -18 1000 -18 820 157 c 1,2,3
 682 -18 682 -18 418 -18 c 0,4,5
 258 -18 258 -18 155 95.5 c 128,-1,6
 52 209 52 209 52 440 c 128,-1,7
 52 671 52 671 308 896 c 1,8,9
 116 1286 116 1286 116 1432.5 c 128,-1,10
 116 1579 116 1579 219 1694.5 c 128,-1,11
 322 1810 322 1810 491.5 1810 c 128,-1,12
 661 1810 661 1810 772.5 1716.5 c 128,-1,13
 884 1623 884 1623 884 1484 c 0,14,15
 884 1216 884 1216 564 896 c 1,16,-1
 820 512 l 1,17,18
 856 592 856 592 884 832 c 1,19,-1
 1140 832 l 1,20,21
 1140 591 1140 591 981 350 c 1,22,23
 1053 256 1053 256 1140 256 c 1,24,-1
 1140 -18 l 1,0,1
514 1600 m 0,25,26
 372 1600 372 1600 372 1430.5 c 128,-1,27
 372 1261 372 1261 469 1024 c 1,28,29
 543 1116 543 1116 585.5 1262.5 c 128,-1,30
 628 1409 628 1409 628 1469 c 128,-1,31
 628 1529 628 1529 594 1564.5 c 128,-1,32
 560 1600 560 1600 514 1600 c 0,25,26
405 704 m 1,33,34
 308 575 308 575 308 383.5 c 128,-1,35
 308 192 308 192 432.5 192 c 128,-1,36
 557 192 557 192 660 320 c 1,37,38
 592 421 592 421 553 479.5 c 128,-1,39
 514 538 514 538 491 572 c 128,-1,40
 468 606 468 606 450 634 c 128,-1,41
 432 662 432 662 419.5 680.5 c 128,-1,42
 407 699 407 699 405 704 c 1,33,34
EndSplineSet
EndChar

StartChar: quotesingle
Encoding: 7 39 10
Width: 384
GlyphClass: 2
Flags: MW
LayerCount: 2
Fore
SplineSet
67 1792 m 1,0,-1
 323 1792 l 1,1,-1
 259 1408 l 1,2,-1
 131 1408 l 1,3,-1
 67 1792 l 1,0,-1
EndSplineSet
EndChar

StartChar: parenleft
Encoding: 8 40 11
Width: 551
GlyphClass: 2
Flags: MW
LayerCount: 2
Fore
SplineSet
80 896 m 256,0,1
 80 1455 80 1455 174 1630 c 0,2,3
 296 1856 296 1856 528 1856 c 1,4,-1
 528 1664 l 1,5,6
 383 1664 383 1664 353 1376 c 0,7,8
 336 1217 336 1217 336 896 c 256,9,10
 336 436 336 436 370 303 c 128,-1,11
 404 170 404 170 447 149 c 128,-1,12
 490 128 490 128 528 128 c 1,13,-1
 528 -64 l 1,14,15
 372 -64 372 -64 282 12 c 0,16,17
 80 182 80 182 80 896 c 256,0,1
EndSplineSet
EndChar

StartChar: parenright
Encoding: 9 41 12
Width: 564
GlyphClass: 2
Flags: MW
LayerCount: 2
Fore
SplineSet
486 896 m 256,0,1
 486 337 486 337 392 162 c 0,2,3
 270 -64 270 -64 38 -64 c 1,4,-1
 38 128 l 1,5,6
 183 128 183 128 213 416 c 0,7,8
 230 575 230 575 230 896 c 256,9,10
 230 1356 230 1356 196 1489 c 128,-1,11
 162 1622 162 1622 119 1643 c 128,-1,12
 76 1664 76 1664 38 1664 c 1,13,-1
 38 1856 l 1,14,15
 194 1856 194 1856 284 1780 c 0,16,17
 486 1610 486 1610 486 896 c 256,0,1
EndSplineSet
EndChar

StartChar: asterisk
Encoding: 10 42 13
Width: 781
GlyphClass: 2
Flags: MW
LayerCount: 2
Fore
SplineSet
246 904 m 1,0,-1
 94 994 l 1,1,-1
 266 1237 l 1,2,-1
 9 1335 l 1,3,-1
 70 1496 l 1,4,-1
 315 1364 l 1,5,-1
 287 1664 l 1,6,-1
 479 1664 l 1,7,-1
 450 1364 l 1,8,-1
 696 1496 l 1,9,-1
 757 1335 l 1,10,-1
 500 1236 l 1,11,-1
 672 994 l 1,12,-1
 520 904 l 1,13,-1
 383 1181 l 1,14,-1
 246 904 l 1,0,-1
EndSplineSet
EndChar

StartChar: plus
Encoding: 11 43 14
Width: 717
GlyphClass: 2
Flags: MW
LayerCount: 2
Fore
SplineSet
268 384 m 1,0,-1
 268 576 l 1,1,-1
 76 576 l 1,2,-1
 76 768 l 1,3,-1
 268 768 l 1,4,-1
 268 960 l 1,5,-1
 460 960 l 1,6,-1
 460 768 l 1,7,-1
 652 768 l 1,8,-1
 652 576 l 1,9,-1
 460 576 l 1,10,-1
 460 384 l 1,11,-1
 268 384 l 1,0,-1
EndSplineSet
EndChar

StartChar: comma
Encoding: 12 44 15
Width: 427
GlyphClass: 2
Flags: MW
LayerCount: 2
Fore
SplineSet
92 256 m 1,0,-1
 348 256 l 1,1,2
 348 -64 348 -64 327 -134 c 0,3,4
 290 -256 290 -256 156 -256 c 1,5,-1
 92 -128 l 1,6,7
 176 -128 176 -128 198 -91 c 128,-1,8
 220 -54 220 -54 220 0 c 1,9,-1
 92 0 l 1,10,-1
 92 256 l 1,0,-1
EndSplineSet
EndChar

StartChar: hyphen
Encoding: 13 45 16
Width: 582
GlyphClass: 2
Flags: MW
LayerCount: 2
Fore
SplineSet
102 640 m 1,0,-1
 486 640 l 1,1,-1
 486 448 l 1,2,-1
 102 448 l 1,3,-1
 102 640 l 1,0,-1
EndSplineSet
EndChar

StartChar: period
Encoding: 14 46 17
Width: 430
GlyphClass: 2
Flags: MW
LayerCount: 2
Fore
SplineSet
96 256 m 1,0,-1
 352 256 l 1,1,-1
 352 0 l 1,2,-1
 96 0 l 1,3,-1
 96 256 l 1,0,-1
EndSplineSet
EndChar

StartChar: slash
Encoding: 15 47 18
Width: 724
GlyphClass: 2
Flags: MW
LayerCount: 2
Fore
SplineSet
529 1792 m 1,0,-1
 786 1792 l 1,1,-1
 210 0 l 1,2,-1
 -46 0 l 1,3,-1
 529 1792 l 1,0,-1
EndSplineSet
EndChar

StartChar: zero
Encoding: 16 48 19
Width: 1085
GlyphClass: 2
Flags: MW
LayerCount: 2
Fore
SplineSet
547 -18 m 256,0,1
 357 -18 357 -18 228 114 c 128,-1,2
 99 246 99 246 99 512 c 2,3,-1
 99 1280 l 2,4,5
 99 1676 99 1676 374 1780 c 0,6,7
 453 1810 453 1810 547 1810 c 256,8,9
 701 1810 701 1810 813 1731 c 0,10,11
 995 1601 995 1601 995 1280 c 2,12,-1
 995 512 l 2,13,14
 995 246 995 246 866 114 c 128,-1,15
 737 -18 737 -18 547 -18 c 256,0,1
355 512 m 2,16,17
 355 192 355 192 547 192 c 256,18,19
 739 192 739 192 739 512 c 2,20,-1
 739 1280 l 2,21,22
 739 1600 739 1600 547 1600 c 256,23,24
 355 1600 355 1600 355 1280 c 2,25,-1
 355 512 l 2,16,17
EndSplineSet
EndChar

StartChar: one
Encoding: 17 49 20
Width: 580
GlyphClass: 2
Flags: MW
LayerCount: 2
Fore
SplineSet
8 1600 m 1,0,1
 204 1671 204 1671 264 1792 c 1,2,-1
 456 1792 l 1,3,-1
 456 0 l 1,4,-1
 200 0 l 1,5,-1
 200 1408 l 1,6,-1
 8 1408 l 1,7,-1
 8 1600 l 1,0,1
EndSplineSet
EndChar

StartChar: two
Encoding: 18 50 21
Width: 1036
GlyphClass: 2
Flags: MW
LayerCount: 2
Fore
SplineSet
520 1600 m 256,0,1
 328 1600 328 1600 328 1280 c 2,2,-1
 328 1216 l 1,3,-1
 72 1216 l 1,4,-1
 72 1280 l 2,5,6
 72 1810 72 1810 520 1810 c 256,7,8
 747 1810 747 1810 857.5 1681 c 128,-1,9
 968 1552 968 1552 968 1378 c 128,-1,10
 968 1204 968 1204 923.5 1091.5 c 128,-1,11
 879 979 879 979 776 832 c 1,12,-1
 328 256 l 1,13,-1
 968 256 l 1,14,-1
 968 0 l 1,15,-1
 71 0 l 1,16,-1
 71 256 l 1,17,-1
 520 896 l 2,18,19
 692 1141 692 1141 702 1225.5 c 128,-1,20
 712 1310 712 1310 712 1379 c 128,-1,21
 712 1448 712 1448 661.5 1524 c 128,-1,22
 611 1600 611 1600 520 1600 c 256,0,1
EndSplineSet
EndChar

StartChar: three
Encoding: 19 51 22
Width: 1040
GlyphClass: 2
Flags: MW
LayerCount: 2
Fore
SplineSet
961 1348 m 0,0,1
 961 1042 961 1042 705 960 c 1,2,3
 777 936 777 936 817 896 c 0,4,5
 961 752 961 752 961 518 c 0,6,7
 961 -18 961 -18 513 -18 c 256,8,9
 286 -18 286 -18 175.5 111 c 128,-1,10
 65 240 65 240 65 448 c 2,11,-1
 65 512 l 1,12,-1
 321 512 l 1,13,14
 321 248 321 248 429 206 c 0,15,16
 465 192 465 192 513 192 c 256,17,18
 614 192 614 192 659.5 260 c 128,-1,19
 705 328 705 328 705 512 c 0,20,21
 705 832 705 832 449 832 c 1,22,-1
 449 1088 l 1,23,24
 593 1088 593 1088 649 1144 c 128,-1,25
 705 1200 705 1200 705 1344 c 256,26,27
 705 1600 705 1600 513 1600 c 256,28,29
 412 1600 412 1600 366.5 1532 c 128,-1,30
 321 1464 321 1464 321 1280 c 1,31,-1
 65 1280 l 1,32,-1
 65 1344 l 2,33,34
 65 1667 65 1667 308 1773 c 0,35,36
 393 1810 393 1810 513 1810 c 256,37,38
 740 1810 740 1810 850.5 1681 c 128,-1,39
 961 1552 961 1552 961 1348 c 0,0,1
EndSplineSet
EndChar

StartChar: four
Encoding: 20 52 23
Width: 978
GlyphClass: 2
Flags: MW
LayerCount: 2
Fore
SplineSet
515 460 m 1,0,-1
 3 460 l 1,1,-1
 3 745 l 1,2,-1
 451 1793 l 1,3,-1
 771 1793 l 1,4,-1
 771 702 l 1,5,-1
 969 702 l 1,6,-1
 969 460 l 1,7,-1
 771 460 l 1,8,-1
 771 0 l 1,9,-1
 515 0 l 1,10,-1
 515 460 l 1,0,-1
515 702 m 1,11,-1
 547 1472 l 1,12,-1
 259 702 l 1,13,-1
 515 702 l 1,11,-1
EndSplineSet
EndChar

StartChar: five
Encoding: 21 53 24
Width: 1030
GlyphClass: 2
Flags: MW
LayerCount: 2
Fore
SplineSet
714 740 m 0,0,1
 709 974 709 974 525 974 c 0,2,3
 391 974 391 974 333 826 c 1,4,-1
 115 826 l 1,5,-1
 115 1792 l 1,6,-1
 907 1792 l 1,7,-1
 907 1536 l 1,8,-1
 347 1536 l 1,9,-1
 331 1102 l 1,10,11
 434 1166 434 1166 587 1166 c 0,12,13
 971 1166 971 1166 971 640 c 0,14,15
 971 -18 971 -18 518 -18 c 0,16,17
 156 -18 156 -18 94 306 c 0,18,19
 76 402 76 402 75 512 c 1,20,-1
 331 512 l 1,21,-1
 331 472 l 2,22,23
 332 186 332 186 508 186 c 0,24,25
 629 186 629 186 672 282 c 128,-1,26
 715 378 715 378 715.5 524.5 c 128,-1,27
 716 671 716 671 714 740 c 0,0,1
EndSplineSet
EndChar

StartChar: six
Encoding: 22 54 25
Width: 1056
GlyphClass: 2
Flags: MW
LayerCount: 2
Fore
SplineSet
340 960 m 1,0,1
 415 1088 415 1088 565 1088 c 0,2,3
 814 1088 814 1088 897 946.5 c 128,-1,4
 980 805 980 805 980 576 c 0,5,6
 980 167 980 167 737 30 c 0,7,8
 652 -18 652 -18 493 -18 c 128,-1,9
 334 -18 334 -18 209 138.5 c 128,-1,10
 84 295 84 295 84 576 c 2,11,-1
 84 1152 l 2,12,13
 84 1621 84 1621 327 1761 c 0,14,15
 412 1810 412 1810 572.5 1810 c 128,-1,16
 733 1810 733 1810 856.5 1692.5 c 128,-1,17
 980 1575 980 1575 980 1344 c 1,18,-1
 724 1344 l 1,19,20
 724 1548 724 1548 617 1587 c 0,21,22
 581 1600 581 1600 532 1600 c 0,23,24
 340 1600 340 1600 340 1216 c 2,25,-1
 340 960 l 1,0,1
532 192 m 256,26,27
 724 192 724 192 724 512 c 256,28,29
 724 704 724 704 703 767 c 0,30,31
 660 896 660 896 535.5 896 c 128,-1,32
 411 896 411 896 340 768 c 1,33,-1
 340 512 l 2,34,35
 340 192 340 192 532 192 c 256,26,27
EndSplineSet
EndChar

StartChar: seven
Encoding: 23 55 26
Width: 699
GlyphClass: 2
Flags: MW
LayerCount: 2
Fore
SplineSet
-29 1792 m 1,0,-1
 688 1792 l 1,1,-1
 688 1669 l 1,2,-1
 362 0 l 1,3,-1
 116 0 l 1,4,-1
 444 1579 l 1,5,-1
 -29 1579 l 1,6,-1
 -29 1792 l 1,0,-1
EndSplineSet
EndChar

StartChar: eight
Encoding: 24 56 27
Width: 1038
GlyphClass: 2
Flags: MW
LayerCount: 2
Fore
SplineSet
523 1063 m 256,0,1
 683 1063 683 1063 683 1331.5 c 128,-1,2
 683 1600 683 1600 522 1600 c 128,-1,3
 361 1600 361 1600 361 1331.5 c 128,-1,4
 361 1063 361 1063 523 1063 c 256,0,1
777 946 m 1,5,6
 970 817 970 817 970 542 c 0,7,8
 970 392 970 392 947 294 c 0,9,10
 874 -18 874 -18 523 -18 c 0,11,12
 74 -18 74 -18 74 500 c 0,13,14
 74 821 74 821 268 946 c 1,15,16
 100 1072 100 1072 100 1376 c 0,17,18
 100 1680 100 1680 336 1778 c 0,19,20
 416 1810 416 1810 522 1810 c 0,21,22
 944 1810 944 1810 944 1344 c 0,23,24
 944 1071 944 1071 777 946 c 1,5,6
714 510 m 0,25,26
 714 818 714 818 522 818 c 128,-1,27
 330 818 330 818 330 551 c 0,28,29
 330 464 330 464 333 408 c 0,30,31
 345 192 345 192 523 192 c 256,32,33
 699 192 699 192 711 408 c 0,34,35
 714 462 714 462 714 510 c 0,25,26
EndSplineSet
EndChar

StartChar: nine
Encoding: 25 57 28
Width: 1048
GlyphClass: 2
Flags: MW
LayerCount: 2
Fore
SplineSet
708 832 m 1,0,1
 633 704 633 704 483 704 c 0,2,3
 234 704 234 704 151 845.5 c 128,-1,4
 68 987 68 987 68 1216 c 0,5,6
 68 1625 68 1625 311 1762 c 0,7,8
 396 1810 396 1810 555 1810 c 128,-1,9
 714 1810 714 1810 839 1653.5 c 128,-1,10
 964 1497 964 1497 964 1216 c 2,11,-1
 964 640 l 2,12,13
 964 171 964 171 721 31 c 0,14,15
 636 -18 636 -18 475.5 -18 c 128,-1,16
 315 -18 315 -18 191.5 99.5 c 128,-1,17
 68 217 68 217 68 448 c 1,18,-1
 324 448 l 1,19,20
 324 244 324 244 431 205 c 0,21,22
 467 192 467 192 516 192 c 0,23,24
 708 192 708 192 708 576 c 2,25,-1
 708 832 l 1,0,1
516 1600 m 256,26,27
 324 1600 324 1600 324 1280 c 256,28,29
 324 1088 324 1088 345 1025 c 0,30,31
 388 896 388 896 512.5 896 c 128,-1,32
 637 896 637 896 708 1024 c 1,33,-1
 708 1280 l 2,34,35
 708 1600 708 1600 516 1600 c 256,26,27
EndSplineSet
EndChar

StartChar: colon
Encoding: 26 58 29
Width: 472
GlyphClass: 2
Flags: MW
LayerCount: 2
Fore
SplineSet
110 1138 m 1,0,-1
 366 1138 l 1,1,-1
 366 882 l 1,2,-1
 110 882 l 1,3,-1
 110 1138 l 1,0,-1
110 462 m 5,4,-1
 366 462 l 5,5,-1
 366 206 l 5,6,-1
 110 206 l 5,7,-1
 110 462 l 5,4,-1
EndSplineSet
EndChar

StartChar: semicolon
Encoding: 27 59 30
Width: 471
GlyphClass: 2
Flags: MW
LayerCount: 2
Fore
SplineSet
113 1138 m 1,0,-1
 369 1138 l 1,1,-1
 369 882 l 1,2,-1
 113 882 l 1,3,-1
 113 1138 l 1,0,-1
113 512 m 1,4,-1
 369 512 l 1,5,6
 377 205 377 205 352 128 c 0,7,8
 310 0 310 0 177 0 c 1,9,-1
 113 128 l 1,10,11
 197 128 197 128 219 165 c 128,-1,12
 241 202 241 202 241 256 c 1,13,-1
 113 256 l 1,14,-1
 113 512 l 1,4,-1
EndSplineSet
EndChar

StartChar: less
Encoding: 28 60 31
Width: 784
GlyphClass: 2
Flags: MW
LayerCount: 2
Fore
SplineSet
56 768 m 1,0,-1
 696 1216 l 1,1,-1
 696 960 l 1,2,-1
 248 641 l 1,3,-1
 696 320 l 1,4,-1
 696 64 l 1,5,-1
 56 512 l 1,6,-1
 56 768 l 1,0,-1
EndSplineSet
EndChar

StartChar: equal
Encoding: 29 61 32
Width: 800
GlyphClass: 2
Flags: MW
LayerCount: 2
Fore
SplineSet
116 576 m 1,0,-1
 116 768 l 1,1,-1
 692 768 l 1,2,-1
 692 576 l 1,3,-1
 116 576 l 1,0,-1
116 255 m 1,4,-1
 116 447 l 1,5,-1
 692 447 l 1,6,-1
 692 255 l 1,7,-1
 116 255 l 1,4,-1
EndSplineSet
EndChar

StartChar: greater
Encoding: 30 62 33
Width: 787
GlyphClass: 2
Flags: MW
LayerCount: 2
Fore
SplineSet
738 512 m 1,0,-1
 98 64 l 1,1,-1
 98 320 l 1,2,-1
 546 641 l 1,3,-1
 98 960 l 1,4,-1
 98 1216 l 1,5,-1
 738 768 l 1,6,-1
 738 512 l 1,0,-1
EndSplineSet
EndChar

StartChar: question
Encoding: 31 63 34
Width: 907
GlyphClass: 2
Flags: MW
LayerCount: 2
Fore
SplineSet
-10 1216 m 2,0,1
 -10 1664 -10 1664 451 1664 c 0,2,3
 668 1664 668 1664 777.5 1542 c 128,-1,4
 887 1420 887 1420 887 1216 c 0,5,6
 887 825 887 825 502 640 c 1,7,-1
 502 384 l 1,8,-1
 246 384 l 1,9,-1
 246 704 l 1,10,11
 630 934 630 934 630 1216 c 0,12,13
 630 1408 630 1408 438 1408 c 128,-1,14
 246 1408 246 1408 246 1152 c 1,15,-1
 -10 1152 l 1,16,-1
 -10 1216 l 2,0,1
246 256 m 1,17,-1
 502 256 l 1,18,-1
 502 0 l 1,19,-1
 246 0 l 1,20,-1
 246 256 l 1,17,-1
EndSplineSet
EndChar

StartChar: at
Encoding: 32 64 35
Width: 1563
GlyphClass: 2
Flags: MW
LayerCount: 2
Fore
SplineSet
804 996 m 0,0,1
 667 996 667 996 667 749 c 128,-1,2
 667 502 667 502 792 502 c 0,3,4
 853 502 853 502 857 542 c 1,5,-1
 857 945 l 1,6,7
 853 996 853 996 804 996 c 0,0,1
1113 620 m 2,8,9
 1114 502 1114 502 1180 502 c 0,10,11
 1298 502 1298 502 1297 786 c 0,12,13
 1297 1380 1297 1380 795 1380 c 0,14,15
 603 1380 603 1380 443 1247 c 128,-1,16
 283 1114 283 1114 283 752 c 0,17,18
 282 227 282 227 594 104 c 0,19,20
 820 15 820 15 1153 119 c 1,21,-1
 1247 -77 l 1,22,23
 1016 -128 1016 -128 833 -128 c 0,24,25
 435 -128 435 -128 231 84 c 128,-1,26
 27 296 27 296 27 720.5 c 128,-1,27
 27 1145 27 1145 238.5 1358.5 c 128,-1,28
 450 1572 450 1572 803 1572 c 128,-1,29
 1156 1572 1156 1572 1354.5 1361.5 c 128,-1,30
 1553 1151 1553 1151 1553 768 c 0,31,32
 1553 566 1553 566 1460.5 429 c 128,-1,33
 1368 292 1368 292 1180 292 c 128,-1,34
 992 292 992 292 910 420 c 1,35,36
 853 292 853 292 765 292 c 0,37,38
 623 292 623 292 517 385 c 128,-1,39
 411 478 411 478 411 708 c 128,-1,40
 411 938 411 938 498 1067.5 c 128,-1,41
 585 1197 585 1197 717.5 1197 c 128,-1,42
 850 1197 850 1197 857 1061 c 1,43,-1
 857 1188 l 1,44,-1
 1113 1188 l 1,45,-1
 1113 620 l 2,8,9
EndSplineSet
EndChar

StartChar: A
Encoding: 33 65 36
Width: 1063
GlyphClass: 2
Flags: MW
LayerCount: 2
Fore
SplineSet
370 448 m 1,0,-1
 274 0 l 1,1,-1
 18 0 l 1,2,-1
 402 1792 l 1,3,-1
 658 1792 l 1,4,-1
 1042 0 l 1,5,-1
 786 0 l 1,6,-1
 690 448 l 1,7,-1
 370 448 l 1,0,-1
658 640 m 1,8,-1
 530 1408 l 1,9,-1
 402 640 l 1,10,-1
 658 640 l 1,8,-1
EndSplineSet
EndChar

StartChar: B
Encoding: 34 66 37
Width: 1173
GlyphClass: 2
Flags: MW
LayerCount: 2
Fore
SplineSet
514 1792 m 2,0,1
 903 1792 903 1792 1018 1546 c 0,2,3
 1060 1456 1060 1456 1060 1322 c 128,-1,4
 1060 1188 1060 1188 997 1096.5 c 128,-1,5
 934 1005 934 1005 770 960 c 1,6,7
 928 907 928 907 1009 808 c 128,-1,8
 1090 709 1090 709 1090 496 c 128,-1,9
 1090 283 1090 283 952 141.5 c 128,-1,10
 814 0 814 0 578 0 c 2,11,-1
 130 0 l 1,12,-1
 130 1792 l 1,13,-1
 514 1792 l 2,0,1
386 192 m 1,14,-1
 514 192 l 2,15,16
 671 192 671 192 752.5 261.5 c 128,-1,17
 834 331 834 331 834 512 c 256,18,19
 834 773 834 773 645 818 c 0,20,21
 586 832 586 832 514 832 c 2,22,-1
 386 832 l 1,23,-1
 386 192 l 1,14,-1
514 1024 m 2,24,25
 834 1024 834 1024 834 1344 c 0,26,27
 834 1517 834 1517 706 1568 c 0,28,29
 646 1592 646 1592 564 1596 c 128,-1,30
 482 1600 482 1600 386 1600 c 1,31,-1
 386 1024 l 1,32,-1
 514 1024 l 2,24,25
EndSplineSet
EndChar

StartChar: C
Encoding: 35 67 38
Width: 1211
GlyphClass: 2
Flags: MW
LayerCount: 2
Fore
SplineSet
92 1152 m 2,0,1
 92 1810 92 1810 604 1810 c 0,2,3
 866 1810 866 1810 991 1651.5 c 128,-1,4
 1116 1493 1116 1493 1116 1216 c 1,5,-1
 860 1216 l 1,6,7
 860 1414 860 1414 802 1507 c 128,-1,8
 744 1600 744 1600 604 1600 c 256,9,10
 464 1600 464 1600 406 1507 c 128,-1,11
 348 1414 348 1414 348 1216 c 2,12,-1
 348 576 l 2,13,14
 348 316 348 316 483 225 c 0,15,16
 532 192 532 192 604 192 c 256,17,18
 737 192 737 192 798.5 302.5 c 128,-1,19
 860 413 860 413 860 576 c 2,20,-1
 860 640 l 1,21,-1
 1116 640 l 1,22,-1
 1116 576 l 2,23,24
 1116 162 1116 162 846 30 c 0,25,26
 748 -18 748 -18 604 -18 c 256,27,28
 92 -18 92 -18 92 641 c 2,29,-1
 92 1152 l 2,0,1
EndSplineSet
EndChar

StartChar: D
Encoding: 36 68 39
Width: 1138
GlyphClass: 2
Flags: MW
LayerCount: 2
Fore
SplineSet
130 0 m 1,0,-1
 130 1792 l 1,1,-1
 514 1792 l 2,2,3
 802 1792 802 1792 914 1680 c 128,-1,4
 1026 1568 1026 1568 1026 1280 c 2,5,-1
 1026 576 l 2,6,7
 1026 278 1026 278 910 139 c 128,-1,8
 794 0 794 0 512 0 c 2,9,-1
 130 0 l 1,0,-1
514 192 m 2,10,11
 610 192 610 192 662 217 c 128,-1,12
 714 242 714 242 738 296 c 128,-1,13
 762 350 762 350 766 435 c 128,-1,14
 770 520 770 520 770 640 c 2,15,-1
 770 1216 l 2,16,17
 770 1312 770 1312 766 1384 c 128,-1,18
 762 1456 762 1456 725 1528 c 128,-1,19
 688 1600 688 1600 509 1600 c 2,20,-1
 386 1600 l 1,21,-1
 386 192 l 1,22,-1
 514 192 l 2,10,11
EndSplineSet
EndChar

StartChar: E
Encoding: 37 69 40
Width: 881
GlyphClass: 2
Flags: MW
LayerCount: 2
Fore
SplineSet
706 832 m 1,0,-1
 386 832 l 1,1,-1
 386 192 l 1,2,-1
 834 192 l 1,3,-1
 834 0 l 1,4,-1
 130 0 l 1,5,-1
 130 1792 l 1,6,-1
 834 1792 l 1,7,-1
 834 1600 l 1,8,-1
 386 1600 l 1,9,-1
 386 1024 l 1,10,-1
 706 1024 l 1,11,-1
 706 832 l 1,0,-1
EndSplineSet
EndChar

StartChar: F
Encoding: 38 70 41
Width: 804
GlyphClass: 2
Flags: MW
LayerCount: 2
Fore
SplineSet
834 1600 m 1,0,-1
 386 1600 l 1,1,-1
 386 1024 l 1,2,-1
 706 1024 l 1,3,-1
 706 832 l 1,4,-1
 386 832 l 1,5,-1
 386 0 l 1,6,-1
 130 0 l 1,7,-1
 130 1792 l 1,8,-1
 834 1792 l 1,9,-1
 834 1600 l 1,0,-1
EndSplineSet
EndChar

StartChar: G
Encoding: 39 71 42
Width: 1233
GlyphClass: 2
Flags: MW
LayerCount: 2
Fore
SplineSet
92 1152 m 2,0,1
 92 1810 92 1810 604 1810 c 0,2,3
 855 1810 855 1810 985.5 1657 c 128,-1,4
 1116 1504 1116 1504 1116 1216 c 1,5,-1
 860 1216 l 1,6,7
 860 1414 860 1414 802 1507 c 128,-1,8
 744 1600 744 1600 604 1600 c 256,9,10
 464 1600 464 1600 406 1507 c 128,-1,11
 348 1414 348 1414 348 1216 c 2,12,-1
 348 640 l 2,13,14
 348 264 348 264 510 208 c 0,15,16
 556 192 556 192 604 192 c 256,17,18
 720 192 720 192 790 285.5 c 128,-1,19
 860 379 860 379 860 640 c 2,20,-1
 860 704 l 1,21,-1
 604 704 l 1,22,-1
 604 896 l 1,23,-1
 1116 896 l 1,24,-1
 1116 0 l 1,25,-1
 924 0 l 1,26,-1
 860 192 l 1,27,28
 803 31 803 31 670 -9 c 0,29,30
 640 -18 640 -18 582 -18 c 128,-1,31
 524 -18 524 -18 455 -4.5 c 128,-1,32
 386 9 386 9 298.5 58 c 128,-1,33
 211 107 211 107 151.5 263.5 c 128,-1,34
 92 420 92 420 92 698 c 2,35,-1
 92 1152 l 2,0,1
EndSplineSet
EndChar

StartChar: H
Encoding: 40 72 43
Width: 1217
GlyphClass: 2
Flags: MW
LayerCount: 2
Fore
SplineSet
834 832 m 1,0,-1
 386 832 l 1,1,-1
 386 0 l 1,2,-1
 130 0 l 1,3,-1
 130 1792 l 1,4,-1
 386 1792 l 1,5,-1
 386 1024 l 1,6,-1
 834 1024 l 1,7,-1
 834 1792 l 1,8,-1
 1090 1792 l 1,9,-1
 1090 0 l 1,10,-1
 834 0 l 1,11,-1
 834 832 l 1,0,-1
EndSplineSet
EndChar

StartChar: I
Encoding: 41 73 44
Width: 513
GlyphClass: 2
Flags: MW
LayerCount: 2
Fore
SplineSet
130 1792 m 1,0,-1
 386 1792 l 1,1,-1
 386 0 l 1,2,-1
 130 0 l 1,3,-1
 130 1792 l 1,0,-1
EndSplineSet
EndChar

StartChar: J
Encoding: 42 74 45
Width: 642
GlyphClass: 2
Flags: MW
LayerCount: 2
Fore
SplineSet
520 1792 m 1,0,-1
 520 448 l 2,1,2
 520 197 520 197 443.5 98.5 c 128,-1,3
 367 0 367 0 136 0 c 2,4,-1
 8 0 l 1,5,-1
 8 192 l 1,6,7
 168 192 168 192 216 230.5 c 128,-1,8
 264 269 264 269 264 448 c 2,9,-1
 264 1792 l 1,10,-1
 520 1792 l 1,0,-1
EndSplineSet
EndChar

StartChar: K
Encoding: 43 75 46
Width: 1141
GlyphClass: 2
Flags: MW
LayerCount: 2
Fore
SplineSet
386 0 m 1,0,-1
 130 0 l 1,1,-1
 130 1792 l 1,2,-1
 386 1792 l 1,3,-1
 386 1024 l 1,4,-1
 770 1792 l 1,5,-1
 1090 1792 l 1,6,-1
 705 1088 l 1,7,-1
 1154 0 l 1,8,-1
 834 0 l 1,9,-1
 514 832 l 1,10,-1
 386 576 l 1,11,-1
 386 0 l 1,0,-1
EndSplineSet
EndChar

StartChar: L
Encoding: 44 76 47
Width: 829
GlyphClass: 2
Flags: MW
LayerCount: 2
Fore
SplineSet
130 0 m 1,0,-1
 130 1792 l 1,1,-1
 386 1792 l 1,2,-1
 386 192 l 1,3,-1
 834 192 l 1,4,-1
 834 0 l 1,5,-1
 130 0 l 1,0,-1
EndSplineSet
EndChar

StartChar: M
Encoding: 45 77 48
Width: 1433
GlyphClass: 2
Flags: MW
LayerCount: 2
Fore
SplineSet
346 0 m 1,0,-1
 130 0 l 1,1,-1
 130 1792 l 1,2,-1
 474 1792 l 1,3,-1
 720 540 l 5,4,-1
 962 1792 l 1,5,-1
 1306 1792 l 1,6,-1
 1306 0 l 1,7,-1
 1090 0 l 1,8,-1
 1090 1414 l 1,9,-1
 814 0 l 1,10,-1
 622 0 l 1,11,-1
 346 1414 l 1,12,-1
 346 0 l 1,0,-1
EndSplineSet
EndChar

StartChar: N
Encoding: 46 78 49
Width: 1153
GlyphClass: 2
Flags: MW
LayerCount: 2
Fore
SplineSet
366 0 m 1,0,-1
 130 0 l 1,1,-1
 130 1792 l 1,2,-1
 322 1792 l 1,3,-1
 790 684 l 5,4,-1
 790 1792 l 5,5,-1
 1026 1792 l 1,6,-1
 1026 0 l 1,7,-1
 844 0 l 1,8,-1
 366 1192 l 1,9,-1
 366 0 l 1,0,-1
EndSplineSet
EndChar

StartChar: O
Encoding: 47 79 50
Width: 1229
GlyphClass: 2
Flags: MW
LayerCount: 2
Fore
SplineSet
1120 576 m 2,0,1
 1120 -18 1120 -18 608 -18 c 128,-1,2
 96 -18 96 -18 96 576 c 2,3,-1
 96 1216 l 2,4,5
 96 1810 96 1810 608 1810 c 128,-1,6
 1120 1810 1120 1810 1120 1216 c 2,7,-1
 1120 576 l 2,0,1
608 1600 m 256,8,9
 352 1600 352 1600 352 1280 c 2,10,-1
 352 512 l 2,11,12
 352 192 352 192 608 192 c 256,13,14
 864 192 864 192 864 512 c 2,15,-1
 864 1280 l 2,16,17
 864 1600 864 1600 608 1600 c 256,8,9
EndSplineSet
EndChar

StartChar: P
Encoding: 48 80 51
Width: 1082
GlyphClass: 2
Flags: MW
LayerCount: 2
Fore
SplineSet
578 1792 m 2,0,1
 1026 1792 1026 1792 1026 1280 c 256,2,3
 1026 1051 1026 1051 904 941.5 c 128,-1,4
 782 832 782 832 578 832 c 2,5,-1
 386 832 l 1,6,-1
 386 0 l 1,7,-1
 130 0 l 1,8,-1
 130 1792 l 1,9,-1
 578 1792 l 2,0,1
450 1024 m 2,10,11
 639 1024 639 1024 704.5 1078.5 c 128,-1,12
 770 1133 770 1133 770 1280 c 256,13,14
 770 1456 770 1456 718.5 1528 c 128,-1,15
 667 1600 667 1600 450 1600 c 2,16,-1
 386 1600 l 1,17,-1
 386 1024 l 1,18,-1
 450 1024 l 2,10,11
EndSplineSet
EndChar

StartChar: Q
Encoding: 49 81 52
Width: 1231
GlyphClass: 2
Flags: MW
LayerCount: 2
Fore
SplineSet
1056 -192 m 1,0,1
 898 -192 898 -192 741 -6 c 1,2,3
 680 -18 680 -18 608 -18 c 0,4,5
 96 -18 96 -18 96 576 c 2,6,-1
 96 1216 l 2,7,8
 96 1810 96 1810 608 1810 c 128,-1,9
 1120 1810 1120 1810 1120 1216 c 2,10,-1
 1120 576 l 2,11,12
 1120 205 1120 205 912 64 c 1,13,14
 976 0 976 0 1056 0 c 1,15,-1
 1056 -192 l 1,0,1
608 1600 m 256,16,17
 352 1600 352 1600 352 1280 c 2,18,-1
 352 512 l 2,19,20
 352 192 352 192 608 192 c 256,21,22
 864 192 864 192 864 512 c 2,23,-1
 864 1280 l 2,24,25
 864 1600 864 1600 608 1600 c 256,16,17
EndSplineSet
EndChar

StartChar: R
Encoding: 50 82 53
Width: 1117
GlyphClass: 2
Flags: MW
LayerCount: 2
Fore
SplineSet
1026 1333 m 0,0,1
 1026 978 1026 978 802 896 c 1,2,-1
 1090 0 l 1,3,-1
 836 0 l 1,4,-1
 578 832 l 1,5,-1
 386 832 l 1,6,-1
 386 0 l 1,7,-1
 130 0 l 1,8,-1
 130 1792 l 1,9,-1
 450 1792 l 2,10,11
 1026 1792 1026 1792 1026 1333 c 0,0,1
770 1312 m 256,12,13
 770 1600 770 1600 450 1600 c 2,14,-1
 386 1600 l 1,15,-1
 386 1024 l 1,16,-1
 450 1024 l 2,17,18
 606 1024 606 1024 688 1088.5 c 128,-1,19
 770 1153 770 1153 770 1312 c 256,12,13
EndSplineSet
EndChar

StartChar: S
Encoding: 51 83 54
Width: 1116
GlyphClass: 2
Flags: MW
LayerCount: 2
Fore
SplineSet
522 1600 m 0,0,1
 331 1600 331 1600 331 1373 c 0,2,3
 331 1253 331 1253 459 1152 c 1,4,-1
 779 896 l 2,5,6
 1035 690 1035 690 1035 392 c 0,7,8
 1035 223 1035 223 919.5 102.5 c 128,-1,9
 804 -18 804 -18 607 -18 c 128,-1,10
 410 -18 410 -18 302 57 c 0,11,12
 91 203 91 203 75 512 c 1,13,-1
 331 576 l 1,14,15
 345 192 345 192 587 192 c 0,16,17
 779 192 779 192 779 384 c 0,18,19
 779 519 779 519 707 592 c 128,-1,20
 635 665 635 665 587 704 c 2,21,-1
 267 960 l 2,22,23
 74 1114 74 1114 74 1393 c 0,24,25
 74 1560 74 1560 192.5 1685 c 128,-1,26
 311 1810 311 1810 576 1810 c 128,-1,27
 841 1810 841 1810 971 1577 c 1,28,29
 1027 1474 1027 1474 1035 1344 c 1,30,-1
 779 1280 l 1,31,32
 765 1600 765 1600 522 1600 c 0,0,1
EndSplineSet
EndChar

StartChar: T
Encoding: 52 84 55
Width: 793
GlyphClass: 2
Flags: MW
LayerCount: 2
Fore
SplineSet
844 1792 m 1,0,-1
 844 1564 l 1,1,-1
 524 1564 l 1,2,-1
 524 0 l 1,3,-1
 268 0 l 1,4,-1
 268 1564 l 1,5,-1
 -52 1564 l 1,6,-1
 -52 1792 l 1,7,-1
 844 1792 l 1,0,-1
EndSplineSet
EndChar

StartChar: U
Encoding: 53 85 56
Width: 1262
GlyphClass: 2
Flags: MW
LayerCount: 2
Fore
SplineSet
632 -18 m 260,0,1
 323 -18 323 -18 221.5 166 c 128,-1,2
 120 350 120 350 120 640 c 2,3,-1
 120 1792 l 1,4,-1
 376 1792 l 1,5,-1
 376 640 l 2,6,7
 376 354 376 354 445 273 c 128,-1,8
 514 192 514 192 632 192 c 256,9,10
 880 192 880 192 886 511 c 0,11,12
 888 592 888 592 888 640 c 2,13,-1
 888 1792 l 1,14,-1
 1144 1792 l 1,15,-1
 1144 640 l 2,16,17
 1144 350 1144 350 1042.5 166 c 128,-1,18
 941 -18 941 -18 632 -18 c 260,0,1
EndSplineSet
EndChar

StartChar: V
Encoding: 54 86 57
Width: 994
GlyphClass: 2
Flags: MW
LayerCount: 2
Fore
SplineSet
565 832 m 1,0,-1
 754 1792 l 1,1,-1
 1010 1792 l 1,2,-1
 626 0 l 1,3,-1
 370 0 l 1,4,-1
 -14 1792 l 1,5,-1
 242 1792 l 1,6,-1
 431 832 l 1,7,-1
 497 384 l 1,8,-1
 565 832 l 1,0,-1
EndSplineSet
EndChar

StartChar: W
Encoding: 55 87 58
Width: 1541
GlyphClass: 2
Flags: MW
LayerCount: 2
Fore
SplineSet
900 1792 m 1,0,-1
 1028 960 l 1,1,-1
 1091 448 l 1,2,-1
 1156 960 l 1,3,-1
 1284 1792 l 1,4,-1
 1540 1792 l 1,5,-1
 1220 0 l 1,6,-1
 964 0 l 1,7,-1
 836 832 l 1,8,-1
 772 1344 l 1,9,-1
 708 832 l 1,10,-1
 580 0 l 1,11,-1
 324 0 l 1,12,-1
 4 1792 l 1,13,-1
 260 1792 l 1,14,-1
 388 960 l 1,15,-1
 453 448 l 1,16,-1
 516 960 l 1,17,-1
 644 1792 l 1,18,-1
 900 1792 l 1,0,-1
EndSplineSet
EndChar

StartChar: X
Encoding: 56 88 59
Width: 1074
GlyphClass: 2
Flags: MW
LayerCount: 2
Fore
SplineSet
543 768 m 1,0,-1
 289 0 l 1,1,-1
 33 0 l 1,2,-1
 351 929 l 1,3,-1
 31 1792 l 1,4,-1
 287 1792 l 1,5,-1
 543 1088 l 1,6,-1
 799 1792 l 1,7,-1
 1055 1792 l 1,8,-1
 735 933 l 1,9,-1
 1051 0 l 1,10,-1
 797 0 l 1,11,-1
 543 768 l 1,0,-1
EndSplineSet
EndChar

StartChar: Y
Encoding: 57 89 60
Width: 910
GlyphClass: 2
Flags: MW
LayerCount: 2
Fore
SplineSet
326 0 m 1,0,-1
 326 576 l 1,1,-1
 -58 1792 l 1,2,-1
 198 1792 l 1,3,-1
 454 896 l 1,4,-1
 710 1792 l 1,5,-1
 966 1792 l 1,6,-1
 582 576 l 1,7,-1
 582 0 l 1,8,-1
 326 0 l 1,0,-1
EndSplineSet
EndChar

StartChar: Z
Encoding: 58 90 61
Width: 943
GlyphClass: 2
Flags: MW
LayerCount: 2
Fore
SplineSet
892 192 m 1,0,-1
 892 0 l 1,1,-1
 60 0 l 1,2,-1
 60 192 l 1,3,-1
 636 1600 l 1,4,-1
 124 1600 l 1,5,-1
 124 1792 l 1,6,-1
 892 1792 l 1,7,-1
 892 1600 l 1,8,-1
 316 192 l 1,9,-1
 892 192 l 1,0,-1
EndSplineSet
EndChar

StartChar: bracketleft
Encoding: 59 91 62
Width: 617
GlyphClass: 2
Flags: MW
LayerCount: 2
Fore
SplineSet
127 1856 m 1,0,-1
 639 1856 l 1,1,-1
 639 1728 l 1,2,-1
 383 1728 l 1,3,-1
 383 64 l 1,4,-1
 639 64 l 1,5,-1
 639 -64 l 1,6,-1
 127 -64 l 1,7,-1
 127 1856 l 1,0,-1
EndSplineSet
EndChar

StartChar: backslash
Encoding: 60 92 63
Width: 530
GlyphClass: 2
Flags: MW
LayerCount: 2
Fore
SplineSet
494 0 m 1,0,-1
 238 0 l 1,1,-1
 46 1792 l 1,2,-1
 302 1792 l 1,3,-1
 494 0 l 1,0,-1
EndSplineSet
EndChar

StartChar: bracketright
Encoding: 61 93 64
Width: 634
GlyphClass: 2
Flags: MW
LayerCount: 2
Fore
SplineSet
508 -64 m 1,0,-1
 -4 -64 l 1,1,-1
 -4 64 l 1,2,-1
 252 64 l 1,3,-1
 252 1728 l 1,4,-1
 -4 1728 l 1,5,-1
 -4 1856 l 1,6,-1
 508 1856 l 1,7,-1
 508 -64 l 1,0,-1
EndSplineSet
EndChar

StartChar: asciicircum
Encoding: 62 94 65
Width: 806
GlyphClass: 2
Flags: MW
LayerCount: 2
Fore
SplineSet
529 1536 m 1,0,-1
 785 896 l 1,1,-1
 529 896 l 1,2,-1
 400 1344 l 1,3,-1
 273 896 l 1,4,-1
 17 896 l 1,5,-1
 273 1536 l 1,6,-1
 529 1536 l 1,0,-1
EndSplineSet
EndChar

StartChar: underscore
Encoding: 63 95 66
Width: 934
GlyphClass: 2
Flags: MW
LayerCount: 2
Fore
SplineSet
90 192 m 1,0,-1
 858 192 l 1,1,-1
 858 0 l 1,2,-1
 90 0 l 1,3,-1
 90 192 l 1,0,-1
EndSplineSet
EndChar

StartChar: grave
Encoding: 64 96 67
Width: 474
GlyphClass: 2
Flags: MW
LayerCount: 2
Fore
SplineSet
25 1792 m 1,0,-1
 281 1792 l 1,1,-1
 409 1408 l 1,2,-1
 281 1408 l 1,3,-1
 25 1792 l 1,0,-1
EndSplineSet
EndChar

StartChar: a
Encoding: 65 97 68
Width: 956
GlyphClass: 2
Flags: MW
LayerCount: 2
Fore
SplineSet
586 192 m 1,0,1
 481 -18 481 -18 330 -18 c 256,2,3
 233 -18 233 -18 153.5 74.5 c 128,-1,4
 74 167 74 167 74 282.5 c 128,-1,5
 74 398 74 398 107 477 c 0,6,7
 178 645 178 645 586 804 c 1,8,-1
 586 896 l 2,9,10
 586 1074 586 1074 505 1085 c 0,11,12
 482 1088 482 1088 458 1088 c 256,13,14
 394 1088 394 1088 362 1056 c 128,-1,15
 330 1024 330 1024 330 896 c 1,16,-1
 74 896 l 1,17,18
 76 1079 76 1079 180 1188.5 c 128,-1,19
 284 1298 284 1298 465.5 1298 c 128,-1,20
 647 1298 647 1298 744.5 1178.5 c 128,-1,21
 842 1059 842 1059 842 896 c 2,22,-1
 842 320 l 2,23,24
 842 132 842 132 875 0 c 1,25,-1
 620 0 l 1,26,-1
 586 192 l 1,0,1
458 192 m 256,27,28
 519 192 519 192 586 286 c 1,29,-1
 586 640 l 1,30,31
 437 541 437 541 383.5 485 c 128,-1,32
 330 429 330 429 330 351 c 0,33,34
 330 192 330 192 458 192 c 256,27,28
EndSplineSet
EndChar

StartChar: b
Encoding: 66 98 69
Width: 1049
GlyphClass: 2
Flags: MW
LayerCount: 2
Fore
SplineSet
576 192 m 0,0,1
 704 192 704 192 704 601 c 0,2,3
 704 913 704 913 683 1000.5 c 128,-1,4
 662 1088 662 1088 576 1088 c 256,5,6
 469 1088 469 1088 384 1037 c 1,7,-1
 384 232 l 1,8,9
 483 192 483 192 576 192 c 0,0,1
384 1153 m 1,10,11
 521 1298 521 1298 627 1298 c 0,12,13
 822 1298 822 1298 891 1136 c 128,-1,14
 960 974 960 974 960 666.5 c 128,-1,15
 960 359 960 359 901 212 c 0,16,17
 810 -18 810 -18 661.5 -18 c 128,-1,18
 513 -18 513 -18 384 116 c 1,19,-1
 384 0 l 1,20,-1
 128 0 l 1,21,-1
 128 1792 l 5,22,-1
 384 1792 l 5,23,-1
 384 1153 l 1,10,11
EndSplineSet
EndChar

StartChar: c
Encoding: 67 99 70
Width: 930
GlyphClass: 2
Flags: MW
LayerCount: 2
Fore
SplineSet
840 448 m 1,0,1
 840 -18 840 -18 454 -18 c 0,2,3
 140 -18 140 -18 86 356 c 0,4,5
 72 457 72 457 72 640 c 256,6,7
 72 1047 72 1047 175.5 1172.5 c 128,-1,8
 279 1298 279 1298 456 1298 c 0,9,10
 772 1298 772 1298 828 1010 c 0,11,12
 840 948 840 948 840 832 c 1,13,-1
 584 832 l 1,14,15
 584 1088 584 1088 456 1088 c 0,16,17
 370 1088 370 1088 342 950 c 0,18,19
 328 880 328 880 328 640 c 256,20,21
 328 297 328 297 368 244.5 c 128,-1,22
 408 192 408 192 456 192 c 256,23,24
 575 192 575 192 582 354 c 0,25,26
 584 400 584 400 584 448 c 1,27,-1
 840 448 l 1,0,1
EndSplineSet
EndChar

StartChar: d
Encoding: 68 100 71
Width: 1025
GlyphClass: 2
Flags: MW
LayerCount: 2
Fore
SplineSet
450 192 m 0,0,1
 543 192 543 192 642 232 c 1,2,-1
 642 1037 l 1,3,4
 557 1088 557 1088 450 1088 c 256,5,6
 364 1088 364 1088 343 1000.5 c 128,-1,7
 322 913 322 913 322 663.5 c 128,-1,8
 322 414 322 414 347.5 303 c 128,-1,9
 373 192 373 192 450 192 c 0,0,1
66 709.5 m 0,10,11
 66 1298 66 1298 354.5 1298 c 0,12,13
 505 1298 505 1298 642 1153 c 1,14,-1
 642 1792 l 5,15,-1
 898 1792 l 5,16,-1
 898 0 l 1,17,-1
 642 0 l 1,18,-1
 642 116 l 1,19,20
 513 -18 513 -18 386 -18 c 0,21,22
 66 -18 66 -18 66 709.5 c 0,10,11
EndSplineSet
EndChar

StartChar: e
Encoding: 69 101 72
Width: 931
GlyphClass: 2
Flags: MW
LayerCount: 2
Fore
SplineSet
838 448 m 1,0,1
 838 -18 838 -18 453 -18 c 0,2,3
 253 -18 253 -18 161.5 130.5 c 128,-1,4
 70 279 70 279 70 649.5 c 128,-1,5
 70 1020 70 1020 162 1159 c 128,-1,6
 254 1298 254 1298 454 1298 c 256,7,8
 654 1298 654 1298 746 1159 c 128,-1,9
 838 1020 838 1020 838 670 c 2,10,-1
 838 640 l 1,11,-1
 326 640 l 1,12,-1
 326 576 l 2,13,14
 326 294 326 294 366 243 c 128,-1,15
 406 192 406 192 473 192 c 128,-1,16
 540 192 540 192 561.5 256 c 128,-1,17
 583 320 583 320 583 448 c 1,18,-1
 838 448 l 1,0,1
582 768 m 1,19,20
 582 1088 582 1088 454 1088 c 0,21,22
 370 1088 370 1088 348 1000 c 128,-1,23
 326 912 326 912 326 768 c 1,24,-1
 582 768 l 1,19,20
EndSplineSet
EndChar

StartChar: f
Encoding: 70 102 73
Width: 673
GlyphClass: 2
Flags: MW
LayerCount: 2
Fore
SplineSet
522 1536 m 1,0,1
 416 1536 416 1536 416 1376 c 2,2,-1
 416 1280 l 1,3,-1
 608 1280 l 1,4,-1
 608 1088 l 1,5,-1
 416 1088 l 1,6,-1
 416 0 l 1,7,-1
 160 0 l 1,8,-1
 160 1088 l 1,9,-1
 32 1088 l 1,10,-1
 32 1280 l 1,11,-1
 160 1280 l 1,12,-1
 160 1329 l 2,13,14
 160 1459 160 1459 173 1535 c 0,15,16
 206 1728 206 1728 450 1728 c 0,17,18
 515 1728 515 1728 608 1716 c 1,19,-1
 608 1526 l 1,20,-1
 522 1536 l 1,0,1
EndSplineSet
EndChar

StartChar: g
Encoding: 71 103 74
Width: 1039
GlyphClass: 2
Flags: MW
LayerCount: 2
Fore
SplineSet
199 89 m 1,0,1
 71 124 71 124 71 194 c 0,2,3
 71 282 71 282 199 448 c 1,4,5
 71 599 71 599 71 828.5 c 128,-1,6
 71 1058 71 1058 184.5 1178 c 128,-1,7
 298 1298 298 1298 466 1298 c 128,-1,8
 634 1298 634 1298 731 1147 c 1,9,10
 813 1298 813 1298 967 1298 c 1,11,-1
 967 1088 l 1,12,13
 871 1088 871 1088 807 1024 c 1,14,15
 839 932 839 932 839 781 c 128,-1,16
 839 630 839 630 739 499 c 128,-1,17
 639 368 639 368 455 368 c 0,18,19
 411 368 411 368 374 375 c 2,20,-1
 326 383 l 1,21,22
 291 313 291 313 291 291.5 c 0,23,24
 291 229.52173913 291 229.52173913 510 220 c 0,25,26
 968 200 968 200 967 -63 c 0,27,28
 967 -193 967 -193 863 -288 c 128,-1,29
 759 -383 759 -383 519 -383 c 0,30,31
 7 -383 7 -383 7 -195 c 128,-1,32
 7 -7 7 -7 199 89 c 1,0,1
327 57 m 1,33,34
 233 -17 233 -17 233 -133 c 0,35,36
 233 -182 233 -182 321.5 -188 c 128,-1,37
 410 -194 410 -194 576.5 -194 c 128,-1,38
 743 -194 743 -194 743 -99 c 0,39,40
 743 8 743 8 538 32 c 2,41,-1
 327 57 l 1,33,34
455 1120 m 256,42,43
 295 1120 295 1120 295 832 c 256,44,45
 295 560 295 560 455 560 c 256,46,47
 615 560 615 560 615 832 c 256,48,49
 615 1120 615 1120 455 1120 c 256,42,43
EndSplineSet
EndChar

StartChar: h
Encoding: 72 104 75
Width: 1012
GlyphClass: 2
Flags: MW
LayerCount: 2
Fore
SplineSet
386 1142 m 1,0,1
 558 1298 558 1298 676.5 1298 c 128,-1,2
 795 1298 795 1298 846.5 1236 c 128,-1,3
 898 1174 898 1174 898 1091 c 2,4,-1
 898 0 l 1,5,-1
 642 0 l 1,6,-1
 642 960 l 2,7,8
 642 1023 642 1023 627.5 1055.5 c 128,-1,9
 613 1088 613 1088 544.5 1088 c 128,-1,10
 476 1088 476 1088 386 1013 c 1,11,-1
 386 0 l 1,12,-1
 130 0 l 1,13,-1
 130 1792 l 1,14,-1
 386 1792 l 1,15,-1
 386 1142 l 1,0,1
EndSplineSet
EndChar

StartChar: i
Encoding: 73 105 76
Width: 512
GlyphClass: 2
Flags: MW
LayerCount: 2
Fore
SplineSet
129 1280 m 1,0,-1
 385 1280 l 1,1,-1
 385 0 l 1,2,-1
 129 0 l 1,3,-1
 129 1280 l 1,0,-1
129 1728 m 1,4,-1
 385 1728 l 1,5,-1
 385 1472 l 1,6,-1
 129 1472 l 1,7,-1
 129 1728 l 1,4,-1
EndSplineSet
EndChar

StartChar: j
Encoding: 74 106 77
Width: 495
GlyphClass: 2
Flags: MW
LayerCount: 2
Fore
SplineSet
277 -238.5 m 128,-1,1
 188 -320 188 -320 77 -320 c 128,-1,2
 -34 -320 -34 -320 -82 -303 c 1,3,-1
 -82 -121 l 1,4,5
 -49 -128 -49 -128 -18 -128 c 0,6,7
 110 -128 110 -128 110 21 c 2,8,-1
 110 1280 l 1,9,-1
 366 1280 l 1,10,-1
 366 -7 l 2,11,0
 366 -157 366 -157 277 -238.5 c 128,-1,1
110 1728 m 1,12,-1
 366 1728 l 1,13,-1
 366 1472 l 1,14,-1
 110 1472 l 1,15,-1
 110 1728 l 1,12,-1
EndSplineSet
EndChar

StartChar: k
Encoding: 75 107 78
Width: 999
GlyphClass: 2
Flags: MW
LayerCount: 2
Fore
SplineSet
386 1792 m 1,0,-1
 386 807 l 1,1,-1
 706 1280 l 1,2,-1
 962 1280 l 1,3,-1
 675 833 l 1,4,-1
 962 0 l 1,5,-1
 706 0 l 1,6,-1
 514 619 l 1,7,-1
 386 448 l 1,8,-1
 386 0 l 1,9,-1
 130 0 l 1,10,-1
 130 1792 l 1,11,-1
 386 1792 l 1,0,-1
EndSplineSet
EndChar

StartChar: l
Encoding: 76 108 79
Width: 513
GlyphClass: 2
Flags: MW
LayerCount: 2
Fore
SplineSet
386 0 m 1,0,-1
 130 0 l 1,1,-1
 130 1792 l 1,2,-1
 386 1792 l 1,3,-1
 386 0 l 1,0,-1
EndSplineSet
EndChar

StartChar: m
Encoding: 77 109 80
Width: 1509
GlyphClass: 2
Flags: MW
LayerCount: 2
Fore
SplineSet
1137 934 m 2,0,1
 1137 1088 1137 1088 1073 1088 c 0,2,3
 981 1088 981 1088 881 1002 c 1,4,-1
 881 0 l 1,5,-1
 625 0 l 1,6,-1
 625 929 l 2,7,8
 625 1088 625 1088 561 1088 c 0,9,10
 472 1088 472 1088 369 1007 c 1,11,-1
 369 0 l 1,12,-1
 113 0 l 1,13,-1
 113 1280 l 1,14,-1
 369 1280 l 1,15,-1
 369 1135 l 1,16,17
 503 1298 503 1298 637.5 1298 c 128,-1,18
 772 1298 772 1298 818 1263 c 128,-1,19
 864 1228 864 1228 881 1129 c 1,20,21
 1010 1298 1010 1298 1225 1298 c 0,22,23
 1331 1298 1331 1298 1362 1216 c 128,-1,24
 1393 1134 1393 1134 1393 931 c 2,25,-1
 1393 0 l 1,26,-1
 1137 0 l 1,27,-1
 1137 934 l 2,0,1
EndSplineSet
EndChar

StartChar: n
Encoding: 78 110 81
Width: 997
GlyphClass: 2
Flags: MW
LayerCount: 2
Fore
SplineSet
625 960 m 2,0,1
 625 1088 625 1088 542 1088 c 128,-1,2
 459 1088 459 1088 369 1013 c 1,3,-1
 369 0 l 1,4,-1
 113 0 l 1,5,-1
 113 1280 l 1,6,-1
 369 1280 l 1,7,-1
 369 1142 l 1,8,9
 541 1298 541 1298 659.5 1298 c 128,-1,10
 778 1298 778 1298 829.5 1236 c 128,-1,11
 881 1174 881 1174 881 1091 c 2,12,-1
 881 0 l 1,13,-1
 625 0 l 1,14,-1
 625 960 l 2,0,1
EndSplineSet
EndChar

StartChar: o
Encoding: 79 111 82
Width: 955
GlyphClass: 2
Flags: MW
LayerCount: 2
Fore
SplineSet
852 448 m 2,0,1
 852 -18 852 -18 468 -18 c 256,2,3
 293 -18 293 -18 193.5 78 c 128,-1,4
 94 174 94 174 89 295 c 128,-1,5
 84 416 84 416 84 448 c 2,6,-1
 84 832 l 2,7,8
 84 1298 84 1298 468 1298 c 256,9,10
 643 1298 643 1298 742.5 1202 c 128,-1,11
 842 1106 842 1106 847 985 c 128,-1,12
 852 864 852 864 852 832 c 2,13,-1
 852 448 l 2,0,1
340 448 m 2,14,15
 340 320 340 320 361.5 256 c 128,-1,16
 383 192 383 192 468 192 c 256,17,18
 587 192 587 192 594 354 c 0,19,20
 596 400 596 400 596 448 c 2,21,-1
 596 832 l 2,22,23
 596 960 596 960 574.5 1024 c 128,-1,24
 553 1088 553 1088 468 1088 c 256,25,26
 349 1088 349 1088 342 926 c 0,27,28
 340 880 340 880 340 832 c 2,29,-1
 340 448 l 2,14,15
EndSplineSet
EndChar

StartChar: p
Encoding: 80 112 83
Width: 1037
GlyphClass: 2
Flags: MW
LayerCount: 2
Fore
SplineSet
369 1152 m 1,0,1
 507 1298 507 1298 613 1298 c 0,2,3
 807 1298 807 1298 876 1136 c 128,-1,4
 945 974 945 974 945 666 c 128,-1,5
 945 358 945 358 886 211 c 0,6,7
 794 -18 794 -18 645.5 -18 c 128,-1,8
 497 -18 497 -18 369 115 c 1,9,-1
 369 -384 l 1,10,-1
 113 -384 l 1,11,-1
 113 1280 l 1,12,-1
 369 1280 l 1,13,-1
 369 1152 l 1,0,1
538 1101 m 256,14,15
 477 1101 477 1101 369 1036 c 1,16,-1
 369 244 l 1,17,18
 459 192 459 192 561 192 c 0,19,20
 689 192 689 192 689 600 c 1,21,22
 690 788 690 788 684 860 c 0,23,24
 666 1100 666 1100 538 1101 c 256,14,15
EndSplineSet
EndChar

StartChar: q
Encoding: 81 113 84
Width: 1027
GlyphClass: 2
Flags: MW
LayerCount: 2
Fore
SplineSet
70 666 m 0,0,1
 70 1298 70 1298 358 1298 c 0,2,3
 508 1298 508 1298 646 1152 c 1,4,-1
 646 1280 l 1,5,-1
 902 1280 l 1,6,-1
 902 -384 l 1,7,-1
 646 -384 l 1,8,-1
 646 115 l 1,9,10
 518 -18 518 -18 369.5 -18 c 128,-1,11
 221 -18 221 -18 145.5 170 c 128,-1,12
 70 358 70 358 70 666 c 0,0,1
646 1036 m 1,13,14
 538 1101 538 1101 477 1101 c 256,15,16
 350 1100 350 1100 332 860 c 0,17,18
 326 788 326 788 326 600 c 0,19,20
 326 192 326 192 454 192 c 0,21,22
 556 192 556 192 646 244 c 1,23,-1
 646 1036 l 1,13,14
EndSplineSet
EndChar

StartChar: r
Encoding: 82 114 85
Width: 752
GlyphClass: 2
Flags: MW
LayerCount: 2
Fore
SplineSet
565 1039 m 0,0,1
 369 1039 369 1039 369 864 c 2,2,-1
 369 0 l 1,3,-1
 113 0 l 1,4,-1
 113 1280 l 1,5,-1
 369 1280 l 1,6,-1
 369 1109 l 1,7,-1
 383 1109 l 1,8,9
 448 1234 448 1234 566 1282 c 0,10,11
 606 1298 606 1298 629.5 1298 c 128,-1,12
 653 1298 653 1298 689 1294 c 1,13,-1
 689 1011 l 1,14,15
 621 1039 621 1039 565 1039 c 0,0,1
EndSplineSet
EndChar

StartChar: s
Encoding: 83 115 86
Width: 915
GlyphClass: 2
Flags: MW
LayerCount: 2
Fore
SplineSet
255 384 m 1,0,1
 326 192 326 192 447 192 c 256,2,3
 575 192 575 192 575 320 c 256,4,5
 575 411 575 411 511 468 c 1,6,-1
 255 660 l 1,7,8
 63 793 63 793 63 952 c 128,-1,9
 63 1111 63 1111 162.5 1204.5 c 128,-1,10
 262 1298 262 1298 453.5 1298 c 128,-1,11
 645 1298 645 1298 759 1129 c 1,12,13
 808 1054 808 1054 831 960 c 1,14,-1
 639 896 l 1,15,16
 568 1088 568 1088 447 1088 c 256,17,18
 319 1088 319 1088 319 966 c 0,19,20
 319 898 319 898 383 852 c 1,21,-1
 639 660 l 1,22,23
 831 506 831 506 831 337.5 c 128,-1,24
 831 169 831 169 731.5 75.5 c 128,-1,25
 632 -18 632 -18 439 -18 c 128,-1,26
 246 -18 246 -18 135 151 c 0,27,28
 86 225 86 225 63 320 c 1,29,-1
 255 384 l 1,0,1
EndSplineSet
EndChar

StartChar: t
Encoding: 84 116 87
Width: 686
GlyphClass: 2
Flags: MW
LayerCount: 2
Fore
SplineSet
417 341 m 2,0,1
 417 192 417 192 523 192 c 0,2,3
 549 192 549 192 609 202 c 1,4,-1
 609 -6 l 1,5,6
 516 -18 516 -18 446 -18 c 0,7,8
 208 -18 208 -18 170 201 c 0,9,10
 162 251 162 251 161 381 c 2,11,-1
 161 1088 l 1,12,-1
 33 1088 l 1,13,-1
 33 1280 l 1,14,-1
 161 1280 l 1,15,-1
 161 1728 l 1,16,-1
 417 1728 l 1,17,-1
 417 1280 l 1,18,-1
 609 1280 l 1,19,-1
 609 1088 l 1,20,-1
 417 1088 l 1,21,-1
 417 341 l 2,0,1
EndSplineSet
EndChar

StartChar: u
Encoding: 85 117 88
Width: 995
GlyphClass: 2
Flags: MW
LayerCount: 2
Fore
SplineSet
364 267 m 2,0,1
 364 177 364 177 464 177 c 0,2,3
 512 177 512 177 620 267 c 1,4,-1
 620 1280 l 1,5,-1
 876 1280 l 1,6,-1
 876 0 l 1,7,-1
 620 0 l 1,8,-1
 620 138 l 1,9,10
 448 -18 448 -18 329.5 -18 c 128,-1,11
 211 -18 211 -18 159.5 44 c 128,-1,12
 108 106 108 106 108 189 c 2,13,-1
 108 1280 l 1,14,-1
 364 1280 l 1,15,-1
 364 267 l 2,0,1
EndSplineSet
EndChar

StartChar: v
Encoding: 86 118 89
Width: 880
GlyphClass: 2
Flags: MW
LayerCount: 2
Fore
SplineSet
297 0 m 1,0,-1
 9 1280 l 1,1,-1
 265 1280 l 1,2,-1
 425 320 l 1,3,-1
 585 1280 l 1,4,-1
 841 1280 l 1,5,-1
 555 0 l 1,6,-1
 297 0 l 1,0,-1
EndSplineSet
EndChar

StartChar: w
Encoding: 87 119 90
Width: 1339
GlyphClass: 2
Flags: MW
LayerCount: 2
Fore
SplineSet
656 832 m 1,0,-1
 528 0 l 1,1,-1
 272 0 l 1,2,-1
 16 1280 l 1,3,-1
 272 1280 l 1,4,-1
 400 448 l 1,5,-1
 528 1280 l 1,6,-1
 782 1280 l 1,7,-1
 910 448 l 1,8,-1
 1038 1280 l 1,9,-1
 1294 1280 l 1,10,-1
 1038 0 l 1,11,-1
 782 0 l 1,12,-1
 656 832 l 1,0,-1
EndSplineSet
EndChar

StartChar: x
Encoding: 88 120 91
Width: 942
GlyphClass: 2
Flags: MW
LayerCount: 2
Fore
SplineSet
310 640 m 1,0,-1
 310 704 l 1,1,-1
 54 1280 l 1,2,-1
 310 1280 l 1,3,-1
 438 896 l 1,4,-1
 470 768 l 1,5,-1
 502 896 l 1,6,-1
 630 1280 l 1,7,-1
 886 1280 l 1,8,-1
 630 704 l 1,9,-1
 630 640 l 1,10,-1
 886 0 l 1,11,-1
 630 0 l 1,12,-1
 502 384 l 1,13,-1
 470 512 l 1,14,-1
 438 384 l 1,15,-1
 310 0 l 1,16,-1
 54 0 l 1,17,-1
 310 640 l 1,0,-1
EndSplineSet
EndChar

StartChar: y
Encoding: 89 121 92
Width: 872
GlyphClass: 2
Flags: MW
LayerCount: 2
Fore
SplineSet
70 -128 m 1,0,1
 287 -128 287 -128 287 56 c 0,2,3
 287 98 287 98 279 128 c 2,4,-1
 6 1280 l 1,5,-1
 262 1280 l 1,6,-1
 423 384 l 1,7,-1
 582 1280 l 1,8,-1
 838 1280 l 1,9,-1
 518 -64 l 1,10,11
 485 -207 485 -207 378 -263.5 c 128,-1,12
 271 -320 271 -320 70 -320 c 1,13,-1
 70 -128 l 1,0,1
EndSplineSet
EndChar

StartChar: z
Encoding: 90 122 93
Width: 846
GlyphClass: 2
Flags: MW
LayerCount: 2
Fore
SplineSet
119 1088 m 1,0,-1
 119 1280 l 1,1,-1
 759 1280 l 1,2,-1
 759 1088 l 1,3,-1
 311 192 l 1,4,-1
 759 192 l 1,5,-1
 759 0 l 1,6,-1
 55 0 l 1,7,-1
 55 192 l 1,8,-1
 503 1088 l 1,9,-1
 119 1088 l 1,0,-1
EndSplineSet
EndChar

StartChar: braceleft
Encoding: 91 123 94
Width: 613
GlyphClass: 2
Flags: MW
LayerCount: 2
Fore
SplineSet
412 1412 m 0,0,1
 412 984 412 984 220 896 c 1,2,3
 412 814 412 814 412 485 c 0,4,5
 412 285 412 285 451 206.5 c 128,-1,6
 490 128 490 128 604 128 c 1,7,-1
 604 -64 l 1,8,9
 370 -64 370 -64 263 57.5 c 128,-1,10
 156 179 156 179 156 434 c 128,-1,11
 156 689 156 689 133 728.5 c 128,-1,12
 110 768 110 768 28 768 c 1,13,-1
 28 1024 l 1,14,15
 105 1024 105 1024 130.5 1101 c 128,-1,16
 156 1178 156 1178 156 1392 c 128,-1,17
 156 1606 156 1606 205 1702.5 c 128,-1,18
 254 1799 254 1799 345.5 1827.5 c 128,-1,19
 437 1856 437 1856 604 1856 c 1,20,-1
 604 1664 l 1,21,22
 482 1664 482 1664 447 1623.5 c 128,-1,23
 412 1583 412 1583 412 1412 c 0,0,1
EndSplineSet
EndChar

StartChar: bar
Encoding: 92 124 95
Width: 446
GlyphClass: 2
Flags: MW
LayerCount: 2
Fore
SplineSet
127 1920 m 1,0,-1
 319 1920 l 1,1,-1
 319 -128 l 1,2,-1
 127 -128 l 1,3,-1
 127 1920 l 1,0,-1
EndSplineSet
EndChar

StartChar: braceright
Encoding: 93 125 96
Width: 629
GlyphClass: 2
Flags: MW
LayerCount: 2
Fore
SplineSet
180 206.5 m 128,-1,1
 219 285 219 285 219 549.5 c 128,-1,2
 219 814 219 814 411 896 c 1,3,4
 333 932 333 932 276 1056 c 128,-1,5
 219 1180 219 1180 219 1381.5 c 128,-1,6
 219 1583 219 1583 184 1623.5 c 128,-1,7
 149 1664 149 1664 27 1664 c 1,8,-1
 27 1856 l 1,9,10
 270 1856 270 1856 372.5 1776.5 c 128,-1,11
 475 1697 475 1697 475 1437.5 c 128,-1,12
 475 1178 475 1178 500.5 1101 c 128,-1,13
 526 1024 526 1024 603 1024 c 1,14,-1
 603 768 l 1,15,16
 521 768 521 768 498 728.5 c 128,-1,17
 475 689 475 689 475 433.5 c 128,-1,18
 475 178 475 178 368 57 c 128,-1,19
 261 -64 261 -64 27 -64 c 1,20,-1
 27 128 l 1,21,0
 141 128 141 128 180 206.5 c 128,-1,1
EndSplineSet
EndChar

StartChar: asciitilde
Encoding: 94 126 97
Width: 860
GlyphClass: 2
Flags: MW
LayerCount: 2
Fore
SplineSet
285 899 m 1,0,1
 237 899 237 899 237 832 c 1,2,-1
 83 832 l 1,3,4
 65 942 65 942 133.5 1023.5 c 128,-1,5
 202 1105 202 1105 280.5 1105 c 128,-1,6
 359 1105 359 1105 458 1062 c 128,-1,7
 557 1019 557 1019 583 1019 c 0,8,9
 635 1019 635 1019 635 1088 c 1,10,-1
 787 1088 l 1,11,12
 809 978 809 978 738 895 c 128,-1,13
 667 812 667 812 586.5 812 c 128,-1,14
 506 812 506 812 408 856 c 128,-1,15
 310 900 310 900 285 899 c 1,0,1
EndSplineSet
EndChar

StartChar: exclamdown
Encoding: 96 161 98
Width: 459
GlyphClass: 2
Flags: MW
LayerCount: 2
Fore
SplineSet
167 1152 m 1,0,-1
 295 1152 l 1,1,-1
 359 0 l 1,2,-1
 103 0 l 1,3,-1
 167 1152 l 1,0,-1
103 1536 m 1,4,-1
 359 1536 l 1,5,-1
 359 1280 l 1,6,-1
 103 1280 l 1,7,-1
 103 1536 l 1,4,-1
EndSplineSet
EndChar

StartChar: cent
Encoding: 97 162 99
Width: 999
GlyphClass: 2
Flags: MW
LayerCount: 2
Fore
SplineSet
118 861 m 2,0,1
 118 1386 118 1386 458 1422 c 1,2,-1
 458 1536 l 1,3,-1
 566 1536 l 1,4,-1
 566 1422 l 1,5,6
 886 1383 886 1383 886 959 c 1,7,-1
 660 960 l 1,8,9
 660 1210 660 1210 566 1231 c 1,10,-1
 566 305 l 1,11,12
 677 317 677 317 660 601 c 1,13,-1
 886 601 l 1,14,15
 896 154 896 154 566 114 c 1,16,-1
 566 0 l 1,17,-1
 458 0 l 1,18,-1
 458 113 l 1,19,20
 117 143 117 143 118 660 c 1,21,-1
 118 861 l 2,0,1
458 1229 m 1,22,23
 358 1187 358 1187 356 1025 c 128,-1,24
 354 863 354 863 354 599 c 128,-1,25
 354 335 354 335 458 304 c 1,26,-1
 458 1229 l 1,22,23
EndSplineSet
EndChar

StartChar: sterling
Encoding: 98 163 100
Width: 926
GlyphClass: 2
Flags: MW
LayerCount: 2
Fore
SplineSet
55 960 m 1,0,-1
 183 960 l 1,1,-1
 183 1152 l 2,2,3
 183 1559 183 1559 286.5 1684.5 c 128,-1,4
 390 1810 390 1810 554 1810 c 0,5,6
 882 1810 882 1810 886 1423 c 0,7,8
 886 1376 886 1376 887 1344 c 1,9,-1
 695 1344 l 1,10,11
 695 1600 695 1600 567 1600 c 0,12,13
 481 1600 481 1600 453 1462 c 0,14,15
 439 1392 439 1392 439 1152 c 2,16,-1
 439 960 l 1,17,-1
 695 960 l 1,18,-1
 695 768 l 1,19,-1
 439 768 l 1,20,-1
 439 192 l 1,21,-1
 887 192 l 1,22,-1
 887 0 l 1,23,-1
 55 0 l 1,24,-1
 55 128 l 1,25,-1
 183 191 l 1,26,-1
 183 768 l 1,27,-1
 55 768 l 1,28,-1
 55 960 l 1,0,-1
EndSplineSet
EndChar

StartChar: currency
Encoding: 99 164 101
Width: 990
GlyphClass: 2
Flags: MW
LayerCount: 2
Fore
SplineSet
495 1280 m 256,0,1
 630 1280 630 1280 726 1217 c 1,2,-1
 812 1303 l 1,3,-1
 902 1213 l 1,4,-1
 815 1126 l 1,5,6
 879 1029 879 1029 879 896.5 c 128,-1,7
 879 764 879 764 815 665 c 1,8,-1
 902 579 l 1,9,-1
 812 489 l 1,10,-1
 726 575 l 1,11,12
 630 512 630 512 495 512 c 256,13,14
 360 512 360 512 264 575 c 1,15,-1
 178 489 l 1,16,-1
 88 579 l 1,17,-1
 174 665 l 1,18,19
 111 762 111 762 111 896 c 128,-1,20
 111 1030 111 1030 174 1127 c 1,21,-1
 88 1213 l 1,22,-1
 178 1303 l 1,23,-1
 264 1217 l 1,24,25
 360 1280 360 1280 495 1280 c 256,0,1
495 682 m 256,26,27
 589 682 589 682 638 744.5 c 128,-1,28
 687 807 687 807 687 896 c 256,29,30
 687 1038 687 1038 582 1092 c 0,31,32
 546 1110 546 1110 495 1110 c 256,33,34
 400 1110 400 1110 351.5 1048 c 128,-1,35
 303 986 303 986 303 897 c 256,36,37
 302 754 302 754 408 700 c 0,38,39
 444 682 444 682 495 682 c 256,26,27
EndSplineSet
EndChar

StartChar: yen
Encoding: 100 165 102
Width: 900
GlyphClass: 2
Flags: MW
LayerCount: 2
Fore
SplineSet
328 0 m 1,0,-1
 328 256 l 1,1,-1
 136 256 l 1,2,-1
 136 424 l 1,3,-1
 328 424 l 1,4,-1
 328 553 l 1,5,-1
 136 553 l 1,6,-1
 136 719 l 1,7,-1
 285 719 l 1,8,-1
 -8 1792 l 1,9,-1
 252 1792 l 1,10,-1
 456 848 l 1,11,-1
 658 1792 l 1,12,-1
 918 1792 l 1,13,-1
 623 719 l 1,14,-1
 776 719 l 1,15,-1
 776 553 l 1,16,-1
 584 553 l 1,17,-1
 584 424 l 1,18,-1
 776 424 l 1,19,-1
 776 256 l 1,20,-1
 584 256 l 1,21,-1
 584 0 l 1,22,-1
 328 0 l 1,0,-1
EndSplineSet
EndChar

StartChar: brokenbar
Encoding: 101 166 103
Width: 436
GlyphClass: 2
Flags: MW
LayerCount: 2
Fore
SplineSet
116 614 m 1,0,-1
 319 614 l 1,1,-1
 319 -14 l 1,2,-1
 116 -14 l 1,3,-1
 116 614 l 1,0,-1
116 1518 m 1,4,-1
 319 1518 l 1,5,-1
 319 889 l 1,6,-1
 116 889 l 1,7,-1
 116 1518 l 1,4,-1
EndSplineSet
EndChar

StartChar: section
Encoding: 102 167 104
Width: 920
GlyphClass: 2
Flags: MW
LayerCount: 2
Fore
SplineSet
653 1408 m 1,0,1
 580 1600 580 1600 456.5 1600 c 128,-1,2
 333 1600 333 1600 333 1460 c 0,3,4
 333 1412 333 1412 397 1364 c 1,5,6
 780 1153 780 1153 830 984 c 0,7,8
 845 933 845 933 845 882 c 0,9,10
 845 686 845 686 687 596 c 1,11,12
 845 472 845 472 845 321 c 128,-1,13
 845 170 845 170 745.5 76.5 c 128,-1,14
 646 -17 646 -17 453 -17 c 128,-1,15
 260 -17 260 -17 149 152 c 0,16,17
 100 225 100 225 77 321 c 1,18,-1
 269 385 l 1,19,20
 337 193 337 193 463 193 c 128,-1,21
 589 193 589 193 589 311.5 c 128,-1,22
 589 430 589 430 525 469 c 2,23,-1
 269 625 l 1,24,25
 77 740 77 740 77 941.5 c 128,-1,26
 77 1143 77 1143 263 1226 c 1,27,28
 77 1334 77 1334 77 1478.5 c 128,-1,29
 77 1623 77 1623 176.5 1716.5 c 128,-1,30
 276 1810 276 1810 461 1810 c 256,31,32
 632 1810 632 1810 723 1707 c 128,-1,33
 814 1604 814 1604 845 1472 c 1,34,-1
 653 1408 l 1,0,1
493 754 m 1,35,36
 589 800 589 800 589 874.777777778 c 128,-1,37
 589 949.555555556 589 949.555555556 429 1074 c 1,38,39
 333 1014 333 1014 333 935.5 c 128,-1,40
 333 857 333 857 397 817 c 1,41,-1
 493 754 l 1,35,36
EndSplineSet
EndChar

StartChar: dieresis
Encoding: 103 168 105
Width: 819
GlyphClass: 2
Flags: MW
LayerCount: 2
Fore
SplineSet
98 1792 m 1,0,-1
 354 1792 l 1,1,-1
 354 1536 l 1,2,-1
 98 1536 l 1,3,-1
 98 1792 l 1,0,-1
482 1792 m 1,4,-1
 738 1792 l 1,5,-1
 738 1536 l 1,6,-1
 482 1536 l 1,7,-1
 482 1792 l 1,4,-1
EndSplineSet
EndChar

StartChar: copyright
Encoding: 104 169 106
Width: 1419
GlyphClass: 2
Flags: MW
LayerCount: 2
Fore
SplineSet
1002 562 m 2,0,1
 1002 217 1002 217 714 217 c 0,2,3
 472 217 472 217 438 458 c 0,4,5
 424 559 424 559 424 710.566666667 c 128,-1,6
 424 862.133333333 424 862.133333333 443 966 c 0,7,8
 481 1180 481 1180 723 1180 c 0,9,10
 1004 1180 1004 1180 1004 840 c 1,11,-1
 821 840 l 1,12,13
 821 1036 821 1036 725 1036 c 0,14,15
 650 1036 650 1036 627 984.5 c 128,-1,16
 604 933 604 933 604 719 c 128,-1,17
 604 505 604 505 623 435 c 128,-1,18
 642 365 642 365 732.5 365 c 128,-1,19
 823 365 823 365 823 578 c 1,20,-1
 1002 578 l 1,21,-1
 1002 562 l 2,0,1
343 298 m 128,-1,23
 495 133 495 133 713 133 c 256,24,25
 931 133 931 133 1083 298 c 128,-1,26
 1235 463 1235 463 1235 697 c 128,-1,27
 1235 931 1235 931 1082 1095.5 c 128,-1,28
 929 1260 929 1260 713 1260 c 256,29,30
 497 1260 497 1260 344 1095.5 c 128,-1,31
 191 931 191 931 191 697 c 128,-1,22
 191 463 191 463 343 298 c 128,-1,23
19 700 m 256,32,33
 19 1110 19 1110 365 1318 c 0,34,35
 525 1415 525 1415 713 1415 c 256,36,37
 999 1415 999 1415 1165 1245 c 0,38,39
 1407 998 1407 998 1407 700 c 256,40,41
 1407 291 1407 291 1061 83 c 0,42,43
 901 -14 901 -14 713 -14 c 256,44,45
 427 -14 427 -14 261 156 c 0,46,47
 19 403 19 403 19 700 c 256,32,33
EndSplineSet
EndChar

StartChar: ordfeminine
Encoding: 105 170 107
Width: 738
GlyphClass: 2
Flags: MW
LayerCount: 2
Fore
SplineSet
637 883 m 2,0,1
 637 714 637 714 651 655 c 1,2,-1
 460 655 l 1,3,-1
 444 766 l 1,4,5
 379 645 379 645 280.5 645 c 128,-1,6
 182 645 182 645 124.5 700.5 c 128,-1,7
 67 756 67 756 67 829.5 c 128,-1,8
 67 903 67 903 91 948 c 0,9,10
 143 1046 143 1046 444 1141 c 1,11,-1
 444 1235 l 2,12,13
 444 1374 444 1374 361 1374 c 128,-1,14
 278 1374 278 1374 278 1223 c 1,15,-1
 100 1223 l 1,16,17
 102 1359 102 1359 177.5 1438.5 c 128,-1,18
 253 1518 253 1518 388.5 1518 c 128,-1,19
 524 1518 524 1518 580.5 1437 c 128,-1,20
 637 1356 637 1356 637 1176 c 2,21,-1
 637 883 l 2,0,1
444 1063 m 1,22,23
 262 963 262 963 262 881 c 128,-1,24
 262 799 262 799 335 799 c 128,-1,25
 408 799 408 799 444 874 c 1,26,-1
 444 1063 l 1,22,23
EndSplineSet
EndChar

StartChar: guillemotleft
Encoding: 106 171 108
Width: 1048
GlyphClass: 2
Flags: MW
LayerCount: 2
Fore
SplineSet
48 704 m 1,0,-1
 496 1216 l 1,1,-1
 496 896 l 1,2,-1
 240 641 l 1,3,-1
 496 384 l 1,4,-1
 496 64 l 1,5,-1
 48 576 l 1,6,-1
 48 704 l 1,0,-1
496 704 m 1,7,-1
 944 1216 l 1,8,-1
 944 896 l 1,9,-1
 688 641 l 1,10,-1
 944 384 l 1,11,-1
 944 64 l 1,12,-1
 496 576 l 1,13,-1
 496 704 l 1,7,-1
EndSplineSet
EndChar

StartChar: logicalnot
Encoding: 107 172 109
Width: 699
GlyphClass: 2
Flags: MW
LayerCount: 2
Fore
SplineSet
87 640 m 1,0,-1
 599 640 l 1,1,-1
 599 256 l 1,2,-1
 471 256 l 1,3,-1
 471 448 l 1,4,-1
 87 448 l 1,5,-1
 87 640 l 1,0,-1
EndSplineSet
EndChar

StartChar: uni00AD
Encoding: 108 173 110
Width: 710
GlyphClass: 2
Flags: MW
LayerCount: 2
Fore
SplineSet
102 640 m 1,0,-1
 614 640 l 1,1,-1
 614 448 l 1,2,-1
 102 448 l 1,3,-1
 102 640 l 1,0,-1
EndSplineSet
EndChar

StartChar: registered
Encoding: 109 174 111
Width: 1419
GlyphClass: 2
Flags: MW
LayerCount: 2
Fore
SplineSet
343 298 m 128,-1,1
 495 133 495 133 713 133 c 256,2,3
 931 133 931 133 1083 298 c 128,-1,4
 1235 463 1235 463 1235 697 c 128,-1,5
 1235 931 1235 931 1082 1095.5 c 128,-1,6
 929 1260 929 1260 713 1260 c 256,7,8
 497 1260 497 1260 344 1095.5 c 128,-1,9
 191 931 191 931 191 697 c 128,-1,0
 191 463 191 463 343 298 c 128,-1,1
19 700 m 256,10,11
 19 1110 19 1110 365 1318 c 0,12,13
 525 1415 525 1415 713 1415 c 256,14,15
 999 1415 999 1415 1165 1245 c 0,16,17
 1407 998 1407 998 1407 700 c 256,18,19
 1407 291 1407 291 1061 83 c 0,20,21
 901 -14 901 -14 713 -14 c 256,22,23
 427 -14 427 -14 261 156 c 0,24,25
 19 403 19 403 19 700 c 256,10,11
850 668 m 2,26,27
 850 628 850 628 998 248 c 1,28,-1
 830 248 l 1,29,-1
 703 633 l 1,30,-1
 621 633 l 1,31,-1
 621 248 l 1,32,-1
 465 248 l 1,33,-1
 465 1167 l 1,34,-1
 705 1167 l 2,35,36
 975 1167 975 1167 975 893 c 0,37,38
 975 738 975 738 850 670 c 1,39,-1
 850 668 l 2,26,27
654 729 m 2,40,41
 742 729 742 729 778.5 758.5 c 128,-1,42
 815 788 815 788 815 918.5 c 128,-1,43
 815 1049 815 1049 692 1049 c 2,44,-1
 621 1049 l 1,45,-1
 621 729 l 1,46,-1
 654 729 l 2,40,41
EndSplineSet
EndChar

StartChar: degree
Encoding: 110 176 112
Width: 884
GlyphClass: 2
Flags: MW
LayerCount: 2
Fore
SplineSet
821 1427 m 256,0,1
 821 1266 821 1266 725.5 1154 c 128,-1,2
 630 1042 630 1042 437 1042 c 256,3,4
 244 1042 244 1042 148.5 1154 c 128,-1,5
 53 1266 53 1266 53 1427 c 256,6,7
 53 1587 53 1587 149 1698.5 c 128,-1,8
 245 1810 245 1810 437.5 1810 c 128,-1,9
 630 1810 630 1810 725.5 1698 c 128,-1,10
 821 1586 821 1586 821 1427 c 256,0,1
437 1212 m 256,11,12
 531 1212 531 1212 580 1274.5 c 128,-1,13
 629 1337 629 1337 629 1426 c 256,14,15
 629 1568 629 1568 524 1622 c 0,16,17
 488 1640 488 1640 437 1640 c 256,18,19
 342 1640 342 1640 293.5 1578 c 128,-1,20
 245 1516 245 1516 245 1427 c 256,21,22
 244 1284 244 1284 350 1230 c 0,23,24
 386 1212 386 1212 437 1212 c 256,11,12
EndSplineSet
EndChar

StartChar: plusminus
Encoding: 111 177 113
Width: 766
GlyphClass: 2
Flags: MW
LayerCount: 2
Fore
SplineSet
102 192 m 1,0,-1
 678 192 l 1,1,-1
 678 0 l 1,2,-1
 102 0 l 1,3,-1
 102 192 l 1,0,-1
294 384 m 1,4,-1
 294 576 l 1,5,-1
 102 576 l 1,6,-1
 102 768 l 1,7,-1
 294 768 l 1,8,-1
 294 960 l 1,9,-1
 486 960 l 1,10,-1
 486 768 l 1,11,-1
 678 768 l 1,12,-1
 678 576 l 1,13,-1
 486 576 l 1,14,-1
 486 384 l 1,15,-1
 294 384 l 1,4,-1
EndSplineSet
EndChar

StartChar: twosuperior
Encoding: 112 178 114
Width: 669
GlyphClass: 2
Flags: MW
LayerCount: 2
Fore
SplineSet
334 1344 m 256,0,1
 270 1344 270 1344 270 1216 c 1,2,-1
 78 1216 l 1,3,4
 78 1389 78 1389 213 1450 c 0,5,6
 262 1472 262 1472 334 1472 c 256,7,8
 590 1472 590 1472 590 1216 c 256,9,10
 590 1111 590 1111 466 955.5 c 128,-1,11
 342 800 342 800 270 704 c 1,12,-1
 590 704 l 1,13,-1
 590 576 l 1,14,-1
 78 576 l 1,15,-1
 78 704 l 1,16,-1
 270 960 l 2,17,18
 398 1131 398 1131 398 1216 c 256,19,20
 398 1344 398 1344 334 1344 c 256,0,1
EndSplineSet
EndChar

StartChar: threesuperior
Encoding: 113 179 115
Width: 673
GlyphClass: 2
Flags: MW
LayerCount: 2
Fore
SplineSet
393 1088 m 1,0,1
 585 1077 585 1077 585 890 c 0,2,3
 585 787 585 787 523.5 713.5 c 128,-1,4
 462 640 462 640 329 640 c 256,5,6
 73 640 73 640 73 896 c 1,7,-1
 265 896 l 1,8,9
 265 768 265 768 329 768 c 256,10,11
 393 768 393 768 393 896 c 256,12,13
 393 960 393 960 371.5 992 c 128,-1,14
 350 1024 350 1024 265 1024 c 1,15,-1
 265 1152 l 1,16,17
 384 1152 384 1152 391 1233 c 0,18,19
 393 1256 393 1256 393 1280 c 256,20,21
 393 1408 393 1408 329 1408 c 256,22,23
 265 1408 265 1408 265 1280 c 1,24,-1
 73 1280 l 1,25,26
 73 1453 73 1453 208 1514 c 0,27,28
 257 1536 257 1536 329 1536 c 256,29,30
 585 1536 585 1536 585 1274 c 0,31,32
 585 1099 585 1099 393 1088 c 1,0,1
EndSplineSet
EndChar

StartChar: acute
Encoding: 114 180 116
Width: 457
GlyphClass: 2
Flags: MW
LayerCount: 2
Fore
SplineSet
191 1408 m 1,0,-1
 63 1408 l 1,1,-1
 191 1792 l 1,2,-1
 447 1792 l 1,3,-1
 191 1408 l 1,0,-1
EndSplineSet
EndChar

StartChar: mu
Encoding: 115 181 117
Width: 1007
GlyphClass: 2
Flags: MW
LayerCount: 2
Fore
SplineSet
636 138 m 1,0,1
 576 7 576 7 380 0 c 1,2,-1
 380 -256 l 1,3,-1
 124 -256 l 1,4,-1
 124 1280 l 1,5,-1
 380 1280 l 1,6,-1
 380 267 l 2,7,8
 380 225 380 225 405.5 201 c 128,-1,9
 431 177 431 177 479.5 177 c 128,-1,10
 528 177 528 177 636 267 c 1,11,-1
 636 1280 l 1,12,-1
 892 1280 l 1,13,-1
 892 0 l 1,14,-1
 636 0 l 1,15,-1
 636 138 l 1,0,1
EndSplineSet
EndChar

StartChar: paragraph
Encoding: 116 182 118
Width: 980
GlyphClass: 2
Flags: MW
LayerCount: 2
Fore
SplineSet
-18 1206 m 0,0,1
 -18 1536 -18 1536 389 1536 c 2,2,-1
 862 1536 l 1,3,-1
 862 0 l 1,4,-1
 684 0 l 1,5,-1
 684 876 l 1,6,-1
 545 876 l 1,7,-1
 545 0 l 1,8,-1
 348 0 l 1,9,-1
 348 876 l 1,10,11
 189 876 189 876 85.5 963 c 128,-1,12
 -18 1050 -18 1050 -18 1206 c 0,0,1
EndSplineSet
EndChar

StartChar: periodcentered
Encoding: 117 183 119
Width: 457
GlyphClass: 2
Flags: MW
LayerCount: 2
Fore
SplineSet
105 960 m 1,0,-1
 361 960 l 1,1,-1
 361 704 l 1,2,-1
 105 704 l 1,3,-1
 105 960 l 1,0,-1
EndSplineSet
EndChar

StartChar: cedilla
Encoding: 118 184 120
Width: 591
GlyphClass: 2
Flags: MW
LayerCount: 2
Fore
SplineSet
270 -128 m 1,0,1
 526 -199.472081218 526 -199.472081218 526 -324.736040609 c 128,-1,2
 526 -450 526 -450 398 -488 c 0,3,4
 318 -512 318 -512 78 -512 c 1,5,-1
 78 -384 l 1,6,7
 238 -384 238 -384 286 -374.5 c 128,-1,8
 334 -365 334 -365 334 -326 c 0,9,10
 334 -260 334 -260 142 -192 c 1,11,-1
 142 0 l 1,12,-1
 270 0 l 1,13,-1
 270 -128 l 1,0,1
EndSplineSet
EndChar

StartChar: onesuperior
Encoding: 119 185 121
Width: 461
GlyphClass: 2
Flags: MW
LayerCount: 2
Fore
SplineSet
30 1344 m 1,0,1
 199 1429 199 1429 286 1536 c 1,2,-1
 350 1536 l 1,3,-1
 350 640 l 1,4,-1
 158 640 l 1,5,-1
 158 1216 l 1,6,-1
 30 1216 l 1,7,-1
 30 1344 l 1,0,1
EndSplineSet
EndChar

StartChar: ordmasculine
Encoding: 120 186 122
Width: 886
GlyphClass: 2
Flags: MW
LayerCount: 2
Fore
SplineSet
799 410 m 1,0,1
 797.59602649 -14 797.59602649 -14 445 -14 c 0,2,3
 257 -14 257 -14 177.5 95 c 128,-1,4
 98 204 98 204 98 410 c 2,5,-1
 98 729 l 2,6,7
 98 1153 98 1153 448.5 1153 c 128,-1,8
 799 1153 799 1153 799 729 c 2,9,-1
 799 410 l 1,0,1
311 451 m 1,10,11
 312 223 312 223 388 195 c 0,12,13
 412 186 412 186 464 186 c 128,-1,14
 516 186 516 186 544.5 235 c 128,-1,15
 573 284 573 284 573 451 c 2,16,-1
 573 688 l 2,17,18
 573 854 573 854 544.5 903 c 128,-1,19
 516 952 516 952 444.5 952 c 128,-1,20
 373 952 373 952 342 900.5 c 128,-1,21
 311 849 311 849 311 688 c 2,22,-1
 311 451 l 1,10,11
EndSplineSet
EndChar

StartChar: guillemotright
Encoding: 121 187 123
Width: 1039
GlyphClass: 2
Flags: MW
LayerCount: 2
Fore
SplineSet
1004 576 m 1,0,-1
 556 64 l 1,1,-1
 556 384 l 1,2,-1
 812 641 l 1,3,-1
 556 896 l 1,4,-1
 556 1216 l 1,5,-1
 1004 704 l 1,6,-1
 1004 576 l 1,0,-1
556 576 m 1,7,-1
 108 64 l 1,8,-1
 108 384 l 1,9,-1
 364 641 l 1,10,-1
 108 896 l 1,11,-1
 108 1216 l 1,12,-1
 556 704 l 1,13,-1
 556 576 l 1,7,-1
EndSplineSet
EndChar

StartChar: questiondown
Encoding: 125 191 127
Width: 749
GlyphClass: 2
Flags: MW
LayerCount: 2
Fore
SplineSet
39 346 m 0,0,1
 39 539.506493506 39 539.506493506 308 812 c 1,2,-1
 308 1029 l 1,3,-1
 524 1029 l 1,4,-1
 524 784 l 2,5,6
 524 783 524 783 505.5 759.5 c 0,7,8
 277 469.243243243 277 469.243243243 277 335.621621622 c 128,-1,9
 277 202 277 202 389 202 c 0,10,11
 530 202 530 202 530 421 c 1,12,-1
 749 421 l 1,13,-1
 749 396 l 2,14,15
 749 116 749 116 551 26 c 0,16,17
 483 -5 483 -5 389 -5 c 0,18,19
 39 -5 39 -5 39 346 c 0,0,1
523 1106 m 1,20,-1
 302 1106 l 1,21,-1
 302 1329 l 1,22,-1
 523 1329 l 1,23,-1
 523 1106 l 1,20,-1
EndSplineSet
EndChar

StartChar: AE
Encoding: 132 198 134
Width: 1491
GlyphClass: 2
Flags: MW
LayerCount: 2
Fore
SplineSet
1316 832 m 1,0,-1
 996 832 l 1,1,-1
 996 192 l 1,2,-1
 1444 192 l 1,3,-1
 1444 0 l 1,4,-1
 740 0 l 1,5,-1
 740 448 l 1,6,-1
 420 448 l 1,7,-1
 229 0 l 1,8,-1
 -26 0 l 1,9,-1
 738 1792 l 1,10,-1
 1444 1792 l 1,11,-1
 1444 1600 l 1,12,-1
 996 1600 l 1,13,-1
 996 1024 l 1,14,-1
 1316 1024 l 1,15,-1
 1316 832 l 1,0,-1
740 640 m 1,16,-1
 740 1298 l 1,17,-1
 493 640 l 1,18,-1
 740 640 l 1,16,-1
EndSplineSet
EndChar

StartChar: Eth
Encoding: 142 208 144
Width: 1148
GlyphClass: 2
Flags: MW
LayerCount: 2
Fore
SplineSet
140 0 m 1,0,-1
 140 832 l 1,1,-1
 76 832 l 1,2,-1
 76 1024 l 1,3,-1
 140 1024 l 1,4,-1
 140 1792 l 1,5,-1
 524 1792 l 2,6,7
 812 1792 812 1792 924 1680 c 128,-1,8
 1036 1568 1036 1568 1036 1280 c 2,9,-1
 1036 576 l 2,10,11
 1036 278 1036 278 920 139 c 128,-1,12
 804 0 804 0 522 0 c 2,13,-1
 140 0 l 1,0,-1
524 192 m 2,14,15
 701.777777778 192 701.777777778 192 740.888888889 280 c 128,-1,16
 780 368 780 368 780 640 c 2,17,-1
 780 1216 l 2,18,19
 780 1440 780 1440 739.5 1520 c 128,-1,20
 699 1600 699 1600 519 1600 c 2,21,-1
 396 1600 l 1,22,-1
 396 1024 l 1,23,-1
 460 1024 l 1,24,-1
 460 832 l 1,25,-1
 396 832 l 1,26,-1
 396 192 l 1,27,-1
 524 192 l 2,14,15
EndSplineSet
EndChar

StartChar: multiply
Encoding: 149 215 151
Width: 748
GlyphClass: 2
Flags: MW
LayerCount: 2
Fore
SplineSet
355 512 m 1,0,-1
 163 320 l 1,1,-1
 35 448 l 1,2,-1
 227 640 l 1,3,-1
 35 832 l 1,4,-1
 163 960 l 1,5,-1
 355 768 l 1,6,-1
 547 960 l 1,7,-1
 675 832 l 1,8,-1
 483 640 l 1,9,-1
 675 448 l 1,10,-1
 547 320 l 1,11,-1
 355 512 l 1,0,-1
EndSplineSet
EndChar

StartChar: Oslash
Encoding: 150 216 152
Width: 1229
GlyphClass: 2
Flags: MW
LayerCount: 2
Fore
SplineSet
884 1745 m 1,0,1
 1120 1607 1120 1607 1120 1216 c 2,2,-1
 1120 576 l 2,3,4
 1120 160 1120 160 854 30 c 0,5,6
 756 -18 756 -18 637.5 -18 c 128,-1,7
 519 -18 519 -18 448 0 c 1,8,-1
 416 -128 l 1,9,-1
 288 -128 l 1,10,-1
 331 44 l 1,11,12
 96 175 96 175 96 576 c 2,13,-1
 96 1216 l 2,14,15
 96 1810 96 1810 608 1810 c 0,16,17
 697 1810 697 1810 768 1792 c 1,18,-1
 800 1920 l 1,19,-1
 928 1920 l 1,20,-1
 884 1745 l 1,0,1
603 1600 m 0,21,22
 352 1600 352 1600 352 1280 c 2,23,-1
 352 512 l 2,24,25
 352 375 352 375 395 300 c 1,26,-1
 715 1583 l 1,27,28
 670 1600 670 1600 603 1600 c 0,21,22
612 192 m 0,29,30
 864 192 864 192 864 512 c 2,31,-1
 864 1280 l 2,32,33
 864 1415 864 1415 821 1492 c 1,34,-1
 500 209 l 1,35,36
 544 192 544 192 612 192 c 0,29,30
EndSplineSet
EndChar

StartChar: Thorn
Encoding: 156 222 158
Width: 1033
GlyphClass: 2
Flags: MW
LayerCount: 2
Fore
SplineSet
553 1281 m 1,0,1
 960 1282.33881579 960 1282.33881579 960 826 c 0,2,3
 960 603 960 603 842 489.5 c 128,-1,4
 724 376 724 376 506 384 c 1,5,-1
 375 384 l 1,6,-1
 375 0 l 1,7,-1
 121 0 l 1,8,-1
 121 1536 l 1,9,-1
 373 1536 l 1,10,-1
 373 1281 l 1,11,-1
 553 1281 l 1,0,1
418 601 m 2,12,13
 562 601 562 601 630 646 c 128,-1,14
 698 691 698 691 698 823 c 128,-1,15
 698 955 698 955 641 1006.5 c 128,-1,16
 584 1058 584 1058 450 1058 c 2,17,-1
 373 1058 l 1,18,-1
 373 601 l 1,19,-1
 418 601 l 2,12,13
EndSplineSet
EndChar

StartChar: germandbls
Encoding: 157 223 159
Width: 1097
GlyphClass: 2
Flags: MW
LayerCount: 2
Fore
SplineSet
705 1373 m 0,0,1
 705 1600 705 1600 541.5 1600 c 128,-1,2
 378 1600 378 1600 378 1359 c 2,3,-1
 378 0 l 1,4,-1
 122 0 l 1,5,-1
 122 1354 l 2,6,7
 122 1583 122 1583 233.5 1696.5 c 128,-1,8
 345 1810 345 1810 506 1810 c 0,9,10
 954 1810 954 1810 954 1330 c 0,11,12
 954 1060 954 1060 735 939 c 1,13,14
 1018 860.630769231 1018 860.630769231 1018 497 c 0,15,16
 1018 -18 1018 -18 506 -18 c 1,17,-1
 506 192 l 1,18,19
 653 192 653 192 707.5 257.5 c 128,-1,20
 762 323 762 323 762 491 c 0,21,22
 762 812 762 812 506 812 c 1,23,-1
 506 1024 l 1,24,25
 705 1024 705 1024 705 1373 c 0,0,1
EndSplineSet
EndChar

StartChar: ae
Encoding: 164 230 166
Width: 1448
GlyphClass: 2
Flags: MW
LayerCount: 2
Fore
SplineSet
970 -18 m 0,0,1
 790.780487805 -18 790.780487805 -18 716 128 c 1,2,3
 548 -19 548 -19 396.5 -19 c 128,-1,4
 245 -19 245 -19 160.5 63.5 c 128,-1,5
 76 146 76 146 76 270.5 c 128,-1,6
 76 395 76 395 109 474.5 c 0,7,8
 179.6432105 644.685916204 179.6432105 644.685916204 588 804 c 1,9,-1
 588 896 l 2,10,11
 588 1074 588 1074 507 1085 c 0,12,13
 484 1088 484 1088 460 1088 c 256,14,15
 396 1088 396 1088 364 1056 c 128,-1,16
 332 1024 332 1024 332 896 c 1,17,-1
 76 896 l 1,18,19
 78 1079 78 1079 182 1188.5 c 128,-1,20
 286 1298 286 1298 431 1298 c 128,-1,21
 576 1298 576 1298 641 1242 c 128,-1,22
 706 1186 706 1186 717 1152 c 1,23,24
 728 1186 728 1186 791.5 1242 c 128,-1,25
 855 1298 855 1298 961 1298 c 0,26,27
 1169.66666667 1298 1169.66666667 1298 1262.33333333 1158.5 c 128,-1,28
 1355 1019 1355 1019 1355 670 c 2,29,-1
 1355 640 l 1,30,-1
 844 640 l 1,31,-1
 844 462 l 1,32,33
 848.175257732 192 848.175257732 192 976 192 c 0,34,35
 1057 192 1057 192 1078.5 256 c 128,-1,36
 1100 320 1100 320 1100 448 c 1,37,-1
 1355 448 l 1,38,39
 1355 -18 1355 -18 970 -18 c 0,0,1
332 351 m 0,40,41
 332 192 332 192 460 192 c 0,42,43
 523 192 523 192 631 246 c 1,44,45
 589 390 589 390 587 639 c 1,46,47
 382.618291428 506.666519629 382.618291428 506.666519629 347.5 428.5 c 0,48,49
 332 394 332 394 332 351 c 0,40,41
971 1088 m 0,50,51
 850 1088 850 1088 844 850 c 1,52,-1
 844 768 l 1,53,-1
 1099 768 l 1,54,55
 1099 990.769230769 1099 990.769230769 1059.5 1039.38461538 c 128,-1,56
 1020 1088 1020 1088 971 1088 c 0,50,51
EndSplineSet
EndChar

StartChar: eth
Encoding: 174 240 176
Width: 1092
GlyphClass: 2
Flags: MW
LayerCount: 2
Fore
SplineSet
141 1810 m 1,0,1
 637.448275862 1810 637.448275862 1810 809 1611 c 1,2,-1
 1037 1664 l 1,3,-1
 1037 1536 l 1,4,-1
 881 1500 l 1,5,6
 973 1312 973 1312 973 960 c 2,7,-1
 973 576 l 2,8,9
 973 295 973 295 848 138.5 c 128,-1,10
 723 -18 723 -18 525 -18 c 0,11,12
 163 -18 163 -18 98 375 c 0,13,14
 78 496 78 496 78 716.5 c 128,-1,15
 78 937 78 937 176 1117.5 c 128,-1,16
 274 1298 274 1298 461 1298 c 0,17,18
 578 1298 578 1298 642 1242 c 128,-1,19
 706 1186 706 1186 717 1152 c 1,20,21
 717 1345 717 1345 648 1446 c 1,22,-1
 205 1344 l 1,23,-1
 205 1472 l 1,24,-1
 525 1546 l 1,25,26
 411.939190489 1600 411.939190489 1600 141 1617 c 5,27,-1
 141 1810 l 1,0,1
717 978 m 1,28,29
 697 1008 697 1008 671 1030 c 0,30,31
 605 1088 605 1088 525 1088 c 0,32,33
 333 1088 333 1088 333 692 c 128,-1,34
 333 296 333 296 441 218 c 0,35,36
 477 192 477 192 525 192 c 256,37,38
 667 192 667 192 705 381 c 0,39,40
 717 440 717 440 717 512 c 2,41,-1
 717 978 l 1,28,29
EndSplineSet
EndChar

StartChar: divide
Encoding: 181 247 183
Width: 724
GlyphClass: 2
Flags: MW
LayerCount: 2
Fore
SplineSet
24 768 m 1,0,-1
 664 768 l 1,1,-1
 664 576 l 1,2,-1
 24 576 l 1,3,-1
 24 768 l 1,0,-1
216 1135 m 1,4,-1
 472 1135 l 1,5,-1
 472 879 l 1,6,-1
 216 879 l 1,7,-1
 216 1135 l 1,4,-1
216 489 m 1,8,-1
 472 489 l 1,9,-1
 472 233 l 1,10,-1
 216 233 l 1,11,-1
 216 489 l 1,8,-1
EndSplineSet
EndChar

StartChar: oslash
Encoding: 182 248 184
Width: 948
GlyphClass: 2
Flags: MW
LayerCount: 2
Fore
SplineSet
573 1015 m 1,0,1
 545 1088 545 1088 463 1088 c 0,2,3
 344 1088 344 1088 337 926 c 0,4,5
 335 880 335 880 335 832 c 2,6,-1
 335 448 l 2,7,8
 335 400 335 400 336 375 c 128,-1,9
 337 350 337 350 337 346 c 1,10,-1
 573 1015 l 1,0,1
847 448 m 1,11,12
 848.758490566 -18 848.758490566 -18 463 -18 c 0,13,14
 370 -18 370 -18 305 6 c 1,15,-1
 233 -196 l 1,16,-1
 147 -196 l 1,17,-1
 231 43 l 1,18,19
 79 144 79 144 79 448 c 2,20,-1
 79 832 l 1,21,22
 77.241509434 1298 77.241509434 1298 463 1298 c 0,23,24
 578 1298 578 1298 658 1258 c 1,25,-1
 730 1462 l 1,26,-1
 827 1462 l 1,27,-1
 735 1205 l 1,28,29
 847 1093 847 1093 847 832 c 2,30,-1
 847 448 l 1,11,12
382 220 m 1,31,32
 410 192 410 192 479 192 c 128,-1,33
 548 192 548 192 569.5 256 c 128,-1,34
 591 320 591 320 591 448 c 2,35,-1
 591 803 l 1,36,-1
 382 220 l 1,31,32
EndSplineSet
EndChar

StartChar: thorn
Encoding: 188 254 190
Width: 911
GlyphClass: 2
Flags: MW
LayerCount: 2
Fore
SplineSet
339 1024 m 1,0,1
 455.724928367 1145.98280802 455.724928367 1145.98280802 551.362464183 1149.49140401 c 0,2,3
 718.808498047 1155.6343946 718.808498047 1155.6343946 768.404249024 1010.3171973 c 128,-1,4
 818 865 818 865 818 498 c 0,5,6
 818 -14 818 -14 574 -14 c 0,7,8
 457 -14 457 -14 339 109 c 1,9,-1
 339 -340 l 1,10,-1
 120 -340 l 1,11,-1
 120 1518 l 1,12,-1
 339 1518 l 1,13,-1
 339 1024 l 1,0,1
488 979 m 256,14,15
 434 979 434 979 339 922 c 1,16,-1
 339 223 l 1,17,18
 440 164 440 164 484 164 c 128,-1,19
 528 164 528 164 559.840667242 205.392867414 c 128,-1,20
 591.681334484 246.785734829 591.681334484 246.785734829 592.51277267 536.957661892 c 128,-1,21
 593.344210857 827.129588955 593.344210857 827.129588955 583 880 c 0,22,23
 564 978 564 978 488 979 c 256,14,15
EndSplineSet
EndChar

StartChar: dcroat
Encoding: 205 273 207
Width: 1084
GlyphClass: 2
Flags: MW
LayerCount: 2
Fore
SplineSet
66 709.5 m 0,0,1
 66 1298 66 1298 354.5 1298 c 0,2,3
 505 1298 505 1298 642 1153 c 1,4,-1
 642 1440 l 1,5,-1
 483 1440 l 1,6,-1
 483 1572 l 1,7,-1
 642 1572 l 1,8,-1
 642 1792 l 1,9,-1
 898 1792 l 1,10,-1
 898 1572 l 1,11,-1
 1037 1572 l 1,12,-1
 1037 1440 l 1,13,-1
 898 1440 l 1,14,-1
 898 0 l 1,15,-1
 642 0 l 1,16,-1
 642 116 l 1,17,18
 513 -18 513 -18 386 -18 c 0,19,20
 66 -18 66 -18 66 709.5 c 0,0,1
450 192 m 0,21,22
 543 192 543 192 642 232 c 1,23,-1
 642 1037 l 1,24,25
 557 1088 557 1088 460.5 1088 c 128,-1,26
 364 1088 364 1088 343 1000.5 c 128,-1,27
 322 913 322 913 322 663.5 c 128,-1,28
 322 414 322 414 347.5 303 c 128,-1,29
 373 192 373 192 450 192 c 0,21,22
EndSplineSet
EndChar

StartChar: Hbar
Encoding: 217 294 219
Width: 1217
GlyphClass: 2
Flags: MW
LayerCount: 2
Fore
SplineSet
30 1572.97265625 m 1
 1187 1572.97265625 l 5
 1187 1452.97265625 l 5
 30 1452.97265625 l 1
 30 1572.97265625 l 1
EndSplineSet
Refer: 43 72 N 1 0 0 1 0 0 2
EndChar

StartChar: hbar
Encoding: 218 295 220
Width: 1011
GlyphClass: 2
Flags: MW
LayerCount: 2
Fore
SplineSet
0 1572.97265625 m 5
 538 1572.97265625 l 5
 538 1452.97265625 l 5
 0 1452.97265625 l 5
 0 1572.97265625 l 5
EndSplineSet
Refer: 75 104 N 1 0 0 1 0 0 2
EndChar

StartChar: dotlessi
Encoding: 220 305 222
Width: 443
GlyphClass: 2
Flags: MW
LayerCount: 2
Fore
SplineSet
106 1135 m 1,0,-1
 327 1135 l 1,1,-1
 327 0 l 1,2,-1
 106 0 l 1,3,-1
 106 1135 l 1,0,-1
EndSplineSet
EndChar

StartChar: Lslash
Encoding: 227 321 229
Width: 829
GlyphClass: 2
Flags: MW
LayerCount: 2
Fore
SplineSet
18.5 982 m 1
 522.5 1206.97265625 l 1
 522.5 1014.97265625 l 1
 18.5 790 l 1
 18.5 982 l 1
EndSplineSet
Refer: 47 76 N 1 0 0 1 0 0 3
EndChar

StartChar: lslash
Encoding: 228 322 230
Width: 513
GlyphClass: 2
Flags: MW
LayerCount: 2
Fore
SplineSet
18.5 982 m 5
 489.5 1188.97265625 l 5
 489.5 996.97265625 l 5
 18.5 790 l 5
 18.5 982 l 5
EndSplineSet
Refer: 79 108 N 1 0 0 1 0 0 3
EndChar

StartChar: OE
Encoding: 235 338 237
Width: 1615
GlyphClass: 2
Flags: MW
LayerCount: 2
Fore
SplineSet
864 128 m 1,0,1
 789.175 -18 789.175 -18 608 -18 c 0,2,3
 96 -18 96 -18 96 576 c 2,4,-1
 96 1216 l 2,5,6
 96 1810 96 1810 608 1810 c 0,7,8
 787.35 1810 787.35 1810 864 1664 c 1,9,-1
 864 1792 l 1,10,-1
 1568 1792 l 1,11,-1
 1568 1600 l 1,12,-1
 1120 1600 l 1,13,-1
 1120 1024 l 1,14,-1
 1440 1024 l 1,15,-1
 1440 832 l 1,16,-1
 1120 832 l 1,17,-1
 1120 192 l 1,18,-1
 1568 192 l 1,19,-1
 1568 0 l 1,20,-1
 864 0 l 1,21,-1
 864 128 l 1,0,1
608 192 m 256,22,23
 864 192 864 192 864 512 c 2,24,-1
 864 1294 l 1,25,26
 860 1600 860 1600 606 1600 c 128,-1,27
 352 1600 352 1600 352 1280 c 2,28,-1
 352 512 l 2,29,30
 352 192 352 192 608 192 c 256,22,23
EndSplineSet
EndChar

StartChar: oe
Encoding: 236 339 238
Width: 1455
GlyphClass: 2
Flags: MW
LayerCount: 2
Fore
SplineSet
722 128 m 1,0,1
 647.175 -18 647.175 -18 454 -18 c 0,2,3
 82 -18 82 -18 82 448 c 2,4,-1
 82 832 l 2,5,6
 82 1298 82 1298 466 1298 c 0,7,8
 645.35 1298 645.35 1298 722 1152 c 1,9,10
 799.620253165 1298 799.620253165 1298 988.310126582 1298 c 128,-1,11
 1177 1298 1177 1298 1269.5 1159 c 128,-1,12
 1362 1020 1362 1020 1362 670 c 2,13,-1
 1362 640 l 1,14,-1
 850 640 l 1,15,-1
 850 576 l 2,16,17
 850 293.538461538 850 293.538461538 890 242.769230769 c 128,-1,18
 930 192 930 192 997 192 c 128,-1,19
 1064 192 1064 192 1085 254.5 c 128,-1,20
 1106 317 1106 317 1106 448 c 1,21,-1
 1362 448 l 1,22,23
 1362 -18 1362 -18 978 -18 c 0,24,25
 796.780487805 -18 796.780487805 -18 722 128 c 1,0,1
338 448 m 2,26,27
 338 320 338 320 352 278 c 0,28,29
 381 192 381 192 466 192 c 256,30,31
 585 192 585 192 592 354 c 0,32,33
 594 400 594 400 594 448 c 2,34,-1
 594 832 l 2,35,36
 594 960 594 960 580 1002 c 0,37,38
 551 1088 551 1088 466 1088 c 256,39,40
 347 1088 347 1088 340 926 c 0,41,42
 338 880 338 880 338 832 c 2,43,-1
 338 448 l 2,26,27
1106 768 m 1,44,45
 1106 992 1106 992 1067 1040 c 128,-1,46
 1028 1088 1028 1088 980 1088 c 0,47,48
 850 1088 850 1088 850 768 c 1,49,-1
 1106 768 l 1,44,45
EndSplineSet
EndChar

StartChar: florin
Encoding: 266 402 268
Width: 612
GlyphClass: 2
Flags: MW
LayerCount: 2
Fore
SplineSet
-48 -54 m 1,0,1
 12 -64 12 -64 43 -64 c 0,2,3
 105 -64 105 -64 124.5 -22.5 c 128,-1,4
 144 19 144 19 144 96 c 2,5,-1
 144 1088 l 1,6,-1
 16 1088 l 1,7,-1
 16 1280 l 1,8,-1
 144 1280 l 1,9,-1
 144 1344 l 2,10,11
 144 1470 144 1470 154 1521 c 0,12,13
 173 1622 173 1622 235.5 1675 c 128,-1,14
 298 1728 298 1728 434 1728 c 0,15,16
 499 1728 499 1728 592 1716 c 1,17,-1
 592 1526 l 1,18,-1
 506 1536 l 1,19,20
 413 1536 413 1536 403 1437 c 0,21,22
 400 1408 400 1408 400 1376 c 2,23,-1
 400 1280 l 1,24,-1
 528 1280 l 1,25,-1
 528 1088 l 1,26,-1
 400 1088 l 1,27,-1
 400 128 l 2,28,29
 400 2 400 2 390 -49 c 0,30,31
 371 -150 371 -150 308.5 -203 c 128,-1,32
 246 -256 246 -256 110 -256 c 0,33,34
 45 -256 45 -256 -48 -244 c 1,35,-1
 -48 -54 l 1,0,1
EndSplineSet
EndChar

StartChar: dotlessj
Encoding: 267 567 269
Width: 482
GlyphClass: 2
Flags: MW
LayerCount: 2
Fore
SplineSet
34 -320 m 0,0,1
 -41 -320 -41 -320 -88 -303 c 1,2,-1
 -88 -121 l 1,3,4
 -55 -128 -55 -128 -24 -128 c 0,5,6
 104 -128 104 -128 104 21 c 2,7,-1
 104 1280 l 1,8,-1
 360 1280 l 1,9,-1
 360 -7 l 2,10,11
 360 -157 360 -157 271 -238.5 c 128,-1,12
 182 -320 182 -320 34 -320 c 0,0,1
EndSplineSet
EndChar

StartChar: circumflex
Encoding: 268 710 270
Width: 754
GlyphClass: 2
Flags: MW
LayerCount: 2
Fore
SplineSet
376 1664 m 1,0,-1
 248 1408 l 1,1,-1
 56 1408 l 1,2,-1
 248 1792 l 1,3,-1
 504 1792 l 1,4,-1
 696 1408 l 1,5,-1
 504 1408 l 1,6,-1
 376 1664 l 1,0,-1
EndSplineSet
EndChar

StartChar: caron
Encoding: 269 711 271
Width: 700
GlyphClass: 2
Flags: MW
LayerCount: 2
Fore
SplineSet
484 1792 m 1,0,-1
 676 1792 l 1,1,-1
 484 1408 l 1,2,-1
 228 1408 l 1,3,-1
 36 1792 l 1,4,-1
 228 1792 l 1,5,-1
 356 1536 l 1,6,-1
 484 1792 l 1,0,-1
EndSplineSet
EndChar

StartChar: breve
Encoding: 270 728 272
Width: 754
GlyphClass: 2
Flags: MW
LayerCount: 2
Fore
SplineSet
382 1408 m 256,0,1
 292 1408 292 1408 249 1420 c 0,2,3
 159 1447 159 1447 110.5 1531.5 c 128,-1,4
 62 1616 62 1616 62 1792 c 1,5,-1
 254 1792 l 1,6,7
 254 1614 254 1614 335 1603 c 0,8,9
 358 1600 358 1600 382 1600 c 256,10,11
 446 1600 446 1600 467 1621 c 0,12,13
 510 1664 510 1664 510 1792 c 1,14,-1
 702 1792 l 1,15,16
 702 1534 702 1534 590 1456 c 0,17,18
 530 1414 530 1414 472 1411 c 128,-1,19
 414 1408 414 1408 382 1408 c 256,0,1
EndSplineSet
EndChar

StartChar: dotaccent
Encoding: 271 729 273
Width: 435
GlyphClass: 2
Flags: MW
LayerCount: 2
Fore
SplineSet
98 1792 m 1,0,-1
 354 1792 l 1,1,-1
 354 1536 l 1,2,-1
 98 1536 l 1,3,-1
 98 1792 l 1,0,-1
EndSplineSet
EndChar

StartChar: ring
Encoding: 272 730 274
Width: 631
GlyphClass: 2
Flags: MW
LayerCount: 2
Fore
SplineSet
320 1792 m 256,0,1
 224 1792 224 1792 199 1711 c 0,2,3
 192 1688 192 1688 192 1664 c 256,4,5
 192 1578 192 1578 260 1547 c 0,6,7
 284 1536 284 1536 335 1536 c 0,8,9
 385 1536 385 1536 416.5 1573 c 128,-1,10
 448 1610 448 1610 448 1664 c 256,11,12
 448 1750 448 1750 378 1781 c 0,13,14
 354 1792 354 1792 320 1792 c 256,0,1
320 1920 m 256,15,16
 444 1920 444 1920 510 1844.5 c 128,-1,17
 576 1769 576 1769 576 1664 c 256,18,19
 576 1559 576 1559 510 1483.5 c 128,-1,20
 444 1408 444 1408 320 1408 c 256,21,22
 196 1408 196 1408 130 1483.5 c 128,-1,23
 64 1559 64 1559 64 1664 c 256,24,25
 64 1769 64 1769 130 1844.5 c 128,-1,26
 196 1920 196 1920 320 1920 c 256,15,16
EndSplineSet
EndChar

StartChar: tilde
Encoding: 274 732 276
Width: 844
GlyphClass: 2
Flags: MW
LayerCount: 2
Fore
SplineSet
282 1539 m 0,0,1
 234 1539 234 1539 234 1472 c 1,2,-1
 80 1472 l 1,3,4
 71 1524 71 1524 95.5 1587.5 c 0,5,6
 120 1652 120 1652 144 1680 c 0,7,8
 199 1746 199 1746 300 1745 c 0,9,10
 356 1745 356 1745 424 1715.5 c 128,-1,11
 492 1686 492 1686 524 1672.5 c 128,-1,12
 556 1659 556 1659 580 1659 c 0,13,14
 632 1659 632 1659 632 1728 c 1,15,-1
 784 1728 l 1,16,17
 795 1675 795 1675 770.5 1611.5 c 128,-1,18
 746 1548 746 1548 721 1519 c 0,19,20
 663 1452 663 1452 566 1452 c 0,21,22
 503 1452 503 1452 435.5 1482 c 128,-1,23
 368 1512 368 1512 337 1525.5 c 128,-1,24
 306 1539 306 1539 282 1539 c 0,0,1
EndSplineSet
EndChar

StartChar: hungarumlaut
Encoding: 275 733 277
Width: 841
GlyphClass: 2
Flags: MW
LayerCount: 2
Fore
SplineSet
191 1408 m 1,0,-1
 63 1408 l 1,1,-1
 191 1792 l 1,2,-1
 447 1792 l 1,3,-1
 191 1408 l 1,0,-1
575 1408 m 1,4,-1
 447 1408 l 1,5,-1
 575 1792 l 1,6,-1
 831 1792 l 1,7,-1
 575 1408 l 1,4,-1
EndSplineSet
EndChar

StartChar: quoteleft
Encoding: 276 8216 278
Width: 433
GlyphClass: 2
Flags: MW
LayerCount: 2
Fore
SplineSet
340 1280 m 1,0,-1
 84 1280 l 1,1,2
 84 1424 84 1424 87 1522 c 128,-1,3
 90 1620 90 1620 108 1680 c 128,-1,4
 126 1740 126 1740 165 1766 c 128,-1,5
 204 1792 204 1792 276 1792 c 1,6,-1
 340 1664 l 1,7,8
 256 1664 256 1664 228 1617 c 0,9,10
 212 1590 212 1590 212 1536 c 1,11,-1
 340 1536 l 1,12,-1
 340 1280 l 1,0,-1
EndSplineSet
EndChar

StartChar: quoteright
Encoding: 277 8217 279
Width: 418
GlyphClass: 2
Flags: MW
LayerCount: 2
Fore
SplineSet
80 1792 m 1,0,-1
 336 1792 l 1,1,2
 336 1648 336 1648 333 1550 c 128,-1,3
 330 1452 330 1452 312 1392 c 128,-1,4
 294 1332 294 1332 255 1306 c 128,-1,5
 216 1280 216 1280 144 1280 c 1,6,-1
 80 1408 l 1,7,8
 164 1408 164 1408 192 1455 c 0,9,10
 208 1482 208 1482 208 1536 c 1,11,-1
 80 1536 l 1,12,-1
 80 1792 l 1,0,-1
EndSplineSet
EndChar

StartChar: quotesinglbase
Encoding: 278 8218 280
Width: 385
GlyphClass: 2
Flags: MW
LayerCount: 2
Fore
SplineSet
68 63 m 1,0,-1
 324 63 l 1,1,-1
 260 -321 l 1,2,-1
 132 -321 l 1,3,-1
 68 63 l 1,0,-1
EndSplineSet
EndChar

StartChar: quotedblleft
Encoding: 279 8220 281
Width: 817
GlyphClass: 2
Flags: MW
LayerCount: 2
Fore
SplineSet
340 1280 m 1,0,-1
 84 1280 l 1,1,2
 84 1424 84 1424 87 1522 c 128,-1,3
 90 1620 90 1620 108 1680 c 128,-1,4
 126 1740 126 1740 165 1766 c 128,-1,5
 204 1792 204 1792 276 1792 c 1,6,-1
 340 1664 l 1,7,8
 256 1664 256 1664 228 1617 c 0,9,10
 212 1590 212 1590 212 1536 c 1,11,-1
 340 1536 l 1,12,-1
 340 1280 l 1,0,-1
724 1280 m 1,13,-1
 468 1280 l 1,14,15
 468 1424 468 1424 471 1522 c 128,-1,16
 474 1620 474 1620 492 1680 c 128,-1,17
 510 1740 510 1740 549 1766 c 128,-1,18
 588 1792 588 1792 660 1792 c 1,19,-1
 724 1664 l 1,20,21
 640 1664 640 1664 612 1617 c 0,22,23
 596 1590 596 1590 596 1536 c 1,24,-1
 724 1536 l 1,25,-1
 724 1280 l 1,13,-1
EndSplineSet
EndChar

StartChar: quotedblright
Encoding: 280 8221 282
Width: 802
GlyphClass: 2
Flags: MW
LayerCount: 2
Fore
SplineSet
80 1792 m 1,0,-1
 336 1792 l 1,1,2
 336 1648 336 1648 333 1550 c 128,-1,3
 330 1452 330 1452 312 1392 c 128,-1,4
 294 1332 294 1332 255 1306 c 128,-1,5
 216 1280 216 1280 144 1280 c 1,6,-1
 80 1408 l 1,7,8
 164 1408 164 1408 192 1455 c 0,9,10
 208 1482 208 1482 208 1536 c 1,11,-1
 80 1536 l 1,12,-1
 80 1792 l 1,0,-1
464 1792 m 1,13,-1
 720 1792 l 1,14,15
 720 1648 720 1648 717 1550 c 128,-1,16
 714 1452 714 1452 696 1392 c 128,-1,17
 678 1332 678 1332 639 1306 c 128,-1,18
 600 1280 600 1280 528 1280 c 1,19,-1
 464 1408 l 1,20,21
 548 1408 548 1408 576 1455 c 0,22,23
 592 1482 592 1482 592 1536 c 1,24,-1
 464 1536 l 1,25,-1
 464 1792 l 1,13,-1
EndSplineSet
EndChar

StartChar: quotedblbase
Encoding: 281 8222 283
Width: 708
GlyphClass: 2
Flags: MW
LayerCount: 2
Fore
SplineSet
68 64 m 1,0,-1
 324 64 l 1,1,-1
 260 -320 l 1,2,-1
 132 -320 l 1,3,-1
 68 64 l 1,0,-1
391 64 m 1,4,-1
 647 64 l 1,5,-1
 583 -320 l 1,6,-1
 455 -320 l 1,7,-1
 391 64 l 1,4,-1
EndSplineSet
EndChar

StartChar: daggerdbl
Encoding: 282 8225 284
Width: 742
GlyphClass: 2
Flags: MW
LayerCount: 2
Fore
SplineSet
499 448 m 1,0,-1
 499 0 l 1,1,-1
 243 0 l 1,2,-1
 243 448 l 1,3,-1
 51 448 l 1,4,-1
 51 704 l 1,5,-1
 243 704 l 1,6,-1
 243 1024 l 1,7,-1
 51 1024 l 1,8,-1
 51 1280 l 1,9,-1
 243 1280 l 1,10,-1
 243 1536 l 1,11,-1
 499 1536 l 1,12,-1
 499 1280 l 1,13,-1
 691 1280 l 1,14,-1
 691 1024 l 1,15,-1
 499 1024 l 1,16,-1
 499 704 l 1,17,-1
 691 704 l 1,18,-1
 691 448 l 1,19,-1
 499 448 l 1,0,-1
EndSplineSet
EndChar

StartChar: perthousand
Encoding: 283 8240 285
Width: 2720
GlyphClass: 2
Flags: MW
LayerCount: 2
Fore
SplineSet
27 1021 m 0,0,1
 26 1398 26 1398 252 1490 c 0,2,3
 317 1516 317 1516 393 1516 c 256,4,5
 521 1516 521 1516 611 1444 c 0,6,7
 760 1326 760 1326 760 1021 c 0,8,9
 760 784 760 784 654 662.5 c 128,-1,10
 548 541 548 541 393 541 c 256,11,12
 238 541 238 541 132.5 663 c 128,-1,13
 27 785 27 785 27 1021 c 0,0,1
393.5 1321 m 128,-1,15
 260 1321 260 1321 260 1028 c 128,-1,16
 260 735 260 735 400 735 c 0,17,18
 468 735 468 735 502 843 c 0,19,20
 526 921 526 921 527 1032 c 0,21,14
 527 1321 527 1321 393.5 1321 c 128,-1,15
1972 481 m 0,22,23
 1972 856 1972 856 2198 948 c 0,24,25
 2263 974 2263 974 2314 975 c 0,26,27
 2416 974 2416 974 2480 948 c 0,28,29
 2576 909 2576 909 2641 802 c 128,-1,30
 2706 695 2706 695 2706 469 c 128,-1,31
 2706 243 2706 243 2600 121.5 c 128,-1,32
 2494 0 2494 0 2339 0 c 256,33,34
 2184 0 2184 0 2078 121.5 c 128,-1,35
 1972 243 1972 243 1972 481 c 0,22,23
2339 780 m 256,36,37
 2206 780 2206 780 2206 492 c 256,38,39
 2206 302 2206 302 2270 226 c 0,40,41
 2296 194 2296 194 2339 195 c 256,42,43
 2472 195 2472 195 2472 487.5 c 128,-1,44
 2472 780 2472 780 2339 780 c 256,36,37
1137 481 m 0,45,46
 1136 856 1136 856 1362 948 c 0,47,48
 1427 974 1427 974 1503 975 c 256,49,50
 1632 975 1632 975 1726 900 c 0,51,52
 1870 786 1870 786 1870 492 c 0,53,54
 1870 243 1870 243 1764 121.5 c 128,-1,55
 1658 0 1658 0 1503 0 c 256,56,57
 1348 0 1348 0 1242.5 122 c 128,-1,58
 1137 244 1137 244 1137 481 c 0,45,46
1637 492 m 0,59,60
 1637 780 1637 780 1503.5 780 c 128,-1,61
 1370 780 1370 780 1370 492 c 0,62,63
 1370 304 1370 304 1435 226 c 0,64,65
 1461 194 1461 194 1503 195 c 256,66,67
 1578 194 1578 194 1612 302 c 0,68,69
 1636 378 1636 378 1637 492 c 0,59,60
983 1518 m 1,70,-1
 1202 1518 l 1,71,-1
 920 0 l 1,72,-1
 700 0 l 1,73,-1
 983 1518 l 1,70,-1
EndSplineSet
EndChar

StartChar: fraction
Encoding: 284 8260 286
Width: 537
GlyphClass: 2
Flags: MW
LayerCount: 2
Fore
SplineSet
315 1641 m 5,0,-1
 534 1641 l 5,1,-1
 252 123 l 5,2,-1
 32 123 l 5,3,-1
 315 1641 l 5,0,-1
EndSplineSet
EndChar

StartChar: foursuperior
Encoding: 285 8308 287
Width: 686
GlyphClass: 2
Flags: MW
LayerCount: 2
Fore
SplineSet
325 832 m 1,0,-1
 5 832 l 1,1,-1
 5 960 l 1,2,-1
 345 1536 l 1,3,-1
 517 1536 l 1,4,-1
 517 960 l 1,5,-1
 645 960 l 1,6,-1
 645 832 l 1,7,-1
 517 832 l 1,8,-1
 517 576 l 1,9,-1
 325 576 l 1,10,-1
 325 832 l 1,0,-1
325 960 m 1,11,-1
 325 1216 l 1,12,-1
 197 960 l 1,13,-1
 325 960 l 1,11,-1
EndSplineSet
EndChar

StartChar: Euro
Encoding: 286 8364 288
Width: 982
GlyphClass: 2
Flags: MW
LayerCount: 2
Fore
SplineSet
34 993 m 1,0,-1
 104 993 l 1,1,2
 113 1259 113 1259 200 1388 c 0,3,4
 300 1536 300 1536 524.5 1536 c 128,-1,5
 749 1536 749 1536 851 1382 c 0,6,7
 935 1256 935 1256 937 1018 c 1,8,-1
 687 1018 l 1,9,10
 687 1186 687 1186 627 1260 c 0,11,12
 587 1308 587 1308 529 1309 c 0,13,14
 422 1309 422 1309 387 1232 c 0,15,16
 358 1170 358 1170 356 993 c 1,17,-1
 552 993 l 1,18,-1
 552 827 l 1,19,-1
 356 827 l 1,20,-1
 356 674 l 1,21,-1
 552 674 l 1,22,-1
 552 508 l 1,23,-1
 358 508 l 1,24,25
 366 333 366 333 405 269 c 128,-1,26
 444 205 444 205 534 205 c 128,-1,27
 624 205 624 205 660 297.5 c 128,-1,28
 696 390 696 390 696 541 c 1,29,-1
 943 541 l 1,30,31
 943 190 943 190 792 59 c 0,32,33
 693 -27 693 -27 528 -27 c 0,34,35
 282 -26 282 -26 184 142 c 0,36,37
 109 270 109 270 102 508 c 1,38,-1
 34 508 l 1,39,-1
 34 674 l 1,40,-1
 102 674 l 1,41,-1
 102 827 l 1,42,-1
 34 827 l 1,43,-1
 34 993 l 1,0,-1
EndSplineSet
EndChar

StartChar: trademark
Encoding: 287 8482 289
Width: 1427
GlyphClass: 2
Flags: MW
LayerCount: 2
Fore
SplineSet
530 1518 m 1,0,-1
 530 1364 l 1,1,-1
 366 1364 l 1,2,-1
 366 686 l 1,3,-1
 196 686 l 1,4,-1
 196 1364 l 1,5,-1
 33 1364 l 1,6,-1
 33 1518 l 1,7,-1
 530 1518 l 1,0,-1
1020 686 m 1,8,-1
 917 686 l 1,9,-1
 780 1241 l 1,10,-1
 780 686 l 1,11,-1
 622 686 l 1,12,-1
 622 1518 l 1,13,-1
 864 1518 l 1,14,-1
 968 1065 l 1,15,-1
 1075 1518 l 1,16,-1
 1317 1518 l 1,17,-1
 1317 686 l 1,18,-1
 1157 686 l 1,19,-1
 1157 1241 l 1,20,-1
 1020 686 l 1,8,-1
EndSplineSet
EndChar

StartChar: Delta
Encoding: 288 8710 290
Width: 949
GlyphClass: 2
Flags: MW
LayerCount: 2
Fore
SplineSet
633 192 m 1,0,-1
 481 896 l 1,1,-1
 330 192 l 1,2,-1
 633 192 l 1,0,-1
33 0 m 1,3,-1
 353 1280 l 1,4,-1
 611 1280 l 1,5,-1
 931 0 l 1,6,-1
 33 0 l 1,3,-1
EndSplineSet
EndChar

StartChar: product
Encoding: 289 8719 291
Width: 1214
GlyphClass: 2
Flags: MW
LayerCount: 2
Fore
SplineSet
1090 1792 m 1,0,-1
 1090 0 l 1,1,-1
 834 0 l 1,2,-1
 834 1600 l 1,3,-1
 386 1600 l 1,4,-1
 386 0 l 1,5,-1
 130 0 l 1,6,-1
 130 1792 l 1,7,-1
 1090 1792 l 1,0,-1
EndSplineSet
EndChar

StartChar: integral
Encoding: 290 8747 292
Width: 565
GlyphClass: 2
Flags: MW
LayerCount: 2
Fore
SplineSet
580 1526 m 1,0,-1
 494 1536 l 1,1,2
 401 1536 401 1536 391 1437 c 0,3,4
 388 1408 388 1408 388 1376 c 2,5,-1
 388 128 l 2,6,7
 388 2 388 2 378 -49 c 0,8,9
 359 -150 359 -150 296.5 -203 c 128,-1,10
 234 -256 234 -256 98 -256 c 0,11,12
 33 -256 33 -256 -60 -244 c 1,13,-1
 -60 -54 l 1,14,15
 0 -64 0 -64 31 -64 c 0,16,17
 93 -64 93 -64 112.5 -22.5 c 128,-1,18
 132 19 132 19 132 96 c 2,19,-1
 132 1344 l 2,20,21
 132 1470 132 1470 142 1521 c 0,22,23
 161 1622 161 1622 223.5 1675 c 128,-1,24
 286 1728 286 1728 422 1728 c 0,25,26
 487 1728 487 1728 580 1716 c 1,27,-1
 580 1526 l 1,0,-1
EndSplineSet
EndChar

StartChar: lozenge
Encoding: 291 9674 293
Width: 785
GlyphClass: 2
Flags: MW
LayerCount: 2
Fore
SplineSet
268 1536 m 1,0,-1
 526 1536 l 1,1,-1
 778 768 l 1,2,-1
 526 0 l 1,3,-1
 268 0 l 1,4,-1
 14 767 l 1,5,-1
 268 1536 l 1,0,-1
396 256 m 1,6,-1
 522 767 l 1,7,-1
 396 1280 l 1,8,-1
 270 768 l 1,9,-1
 396 256 l 1,6,-1
EndSplineSet
EndChar

StartChar: fi
Encoding: 292 64257 294
Width: 1145
GlyphClass: 2
Flags: MW
LayerCount: 2
Fore
SplineSet
416 1376 m 2,0,-1
 416 1280 l 1,1,-1
 1018 1280 l 1,2,-1
 1018 0 l 1,3,-1
 762 0 l 1,4,-1
 762 1088 l 1,5,-1
 416 1088 l 1,6,-1
 416 0 l 1,7,-1
 160 0 l 1,8,-1
 160 1088 l 1,9,-1
 32 1088 l 1,10,-1
 32 1280 l 1,11,-1
 160 1280 l 1,12,-1
 160 1329 l 2,13,14
 160 1459 160 1459 173 1535.5 c 128,-1,15
 186 1612 186 1612 249 1670 c 128,-1,16
 312 1728 312 1728 413.5 1728 c 128,-1,17
 515 1728 515 1728 608 1716 c 1,18,-1
 608 1526 l 1,19,-1
 522 1536 l 1,20,21
 429 1536 429 1536 419 1437 c 0,22,23
 416 1408 416 1408 416 1376 c 2,0,-1
762 1728 m 1,24,-1
 1018 1728 l 1,25,-1
 1018 1472 l 1,26,-1
 762 1472 l 1,27,-1
 762 1728 l 1,24,-1
EndSplineSet
Ligature2: "'liga' Standard Ligatures in Latin lookup 0-1" f i
LCarets2: 1 0 
Ligature2: "'liga' Standard Ligatures in Latin lookup 0-1" f i
EndChar

StartChar: fl
Encoding: 293 64258 295
Width: 1166
GlyphClass: 2
Flags: MW
LayerCount: 2
Fore
SplineSet
415 1376 m 2,0,-1
 415 1280 l 1,1,-1
 607 1280 l 1,2,-1
 607 1088 l 1,3,-1
 415 1088 l 1,4,-1
 415 0 l 1,5,-1
 159 0 l 1,6,-1
 159 1088 l 1,7,-1
 31 1088 l 1,8,-1
 31 1280 l 1,9,-1
 159 1280 l 1,10,-1
 159 1329 l 2,11,12
 159 1459 159 1459 172 1535.5 c 128,-1,13
 185 1612 185 1612 248 1670 c 128,-1,14
 311 1728 311 1728 502 1728 c 2,15,-1
 1039 1728 l 1,16,-1
 1039 0 l 1,17,-1
 783 0 l 1,18,-1
 783 1537 l 1,19,-1
 521 1536 l 2,20,21
 428 1536 428 1536 418 1437 c 0,22,23
 415 1408 415 1408 415 1376 c 2,0,-1
EndSplineSet
Ligature2: "'liga' Standard Ligatures in Latin lookup 0-1" f l
LCarets2: 1 0 
Ligature2: "'liga' Standard Ligatures in Latin lookup 0-1" f l
EndChar

StartChar: glyph290
Encoding: 298 -1 297
Width: 468
GlyphClass: 2
Flags: MW
LayerCount: 2
Fore
SplineSet
376 10 m 1,0,1
 376 9 376 9 254 -150 c 0,2,3
 184 -242 184 -242 184 -316 c 0,4,5
 184 -344 184 -344 197 -357 c 128,-1,6
 210 -370 210 -370 245 -377 c 128,-1,7
 280 -384 280 -384 440 -384 c 1,8,-1
 440 -512 l 1,9,10
 200 -512 200 -512 120 -488 c 0,11,12
 -8 -450 -8 -450 -8 -320 c 0,13,14
 -8 -214 -8 -214 70 -129 c 1,15,16
 180 -6 180 -6 248 10 c 1,17,-1
 376 10 l 1,0,1
EndSplineSet
EndChar

StartChar: uniFB00
Encoding: 299 64256 298
Width: 1306
VWidth: 0
Flags: W
LayerCount: 2
Fore
SplineSet
1155 1536 m 5,0,1
 1049 1536 1049 1536 1049 1376 c 6,2,-1
 1049 1280 l 5,3,-1
 1241 1280 l 5,4,-1
 1241 1088 l 5,5,-1
 1049 1088 l 5,6,-1
 1049 0 l 5,7,-1
 793 0 l 5,8,-1
 793 1088 l 5,9,-1
 416 1088 l 1,10,-1
 416 0 l 1,11,-1
 160 0 l 1,12,-1
 160 1088 l 1,13,-1
 32 1088 l 1,14,-1
 32 1280 l 1,15,-1
 160 1280 l 1,16,-1
 160 1329 l 2,17,18
 160 1459 160 1459 173 1535 c 0,19,20
 206 1728 206 1728 450 1728 c 0,21,22
 515 1728 515 1728 608 1716 c 1,23,-1
 608 1526 l 1,24,-1
 522 1536 l 1,25,26
 416 1536 416 1536 416 1376 c 2,27,-1
 416 1280 l 1,28,-1
 793 1280 l 5,29,-1
 793 1329 l 6,30,31
 793 1459 793 1459 806 1535 c 4,32,33
 839 1728 839 1728 1083 1728 c 4,34,35
 1148 1728 1148 1728 1241 1716 c 5,36,-1
 1241 1526 l 5,37,-1
 1155 1536 l 5,0,1
EndSplineSet
LCarets2: 1 0 
Ligature2: "'liga' Standard Ligatures in Latin lookup 0-1" f f
EndChar
